<?xml version="1.0" encoding="UTF-8" standalone="no"?>
<!-- Created with Inkscape (http://www.inkscape.org/) -->

<svg
   xmlns:dc="http://purl.org/dc/elements/1.1/"
   xmlns:cc="http://creativecommons.org/ns#"
   xmlns:rdf="http://www.w3.org/1999/02/22-rdf-syntax-ns#"
   xmlns:svg="http://www.w3.org/2000/svg"
   xmlns="http://www.w3.org/2000/svg"
   xmlns:sodipodi="http://sodipodi.sourceforge.net/DTD/sodipodi-0.dtd"
   xmlns:inkscape="http://www.inkscape.org/namespaces/inkscape"
   id="svg2"
   version="1.1"
   inkscape:version="0.48.3.1 r9886"
   width="60"
   height="60"
   xml:space="preserve"
   sodipodi:docname="links.svg"><metadata
     id="metadata8"><rdf:RDF><cc:Work
         rdf:about=""><dc:format>image/svg+xml</dc:format><dc:type
           rdf:resource="http://purl.org/dc/dcmitype/StillImage" /><dc:title></dc:title></cc:Work></rdf:RDF></metadata><defs
     id="defs6"><clipPath
       clipPathUnits="userSpaceOnUse"
       id="clipPath18"><path
         d="M 0,13508.7 0,0 l 14670,0 0,13508.7 -14670,0 z"
         id="path20"
         inkscape:connector-curvature="0" /></clipPath></defs><sodipodi:namedview
     pagecolor="#ffffff"
     bordercolor="#666666"
     borderopacity="1"
     objecttolerance="10"
     gridtolerance="10"
     guidetolerance="10"
     inkscape:pageopacity="0"
     inkscape:pageshadow="2"
     inkscape:window-width="1855"
     inkscape:window-height="1056"
     id="namedview4"
     showgrid="false"
     inkscape:zoom="7.6379267"
     inkscape:cx="11.232746"
     inkscape:cy="23.370387"
     inkscape:window-x="65"
     inkscape:window-y="24"
     inkscape:window-maximized="1"
     inkscape:current-layer="g10" /><g
     id="g10"
     inkscape:groupmode="layer"
     inkscape:label="ink_ext_XXXXXX"
     transform="matrix(1.25,0,0,-1.25,0,60)"><path
       style="fill:#807e7e;fill-opacity:1;fill-rule:nonzero;stroke:none"
       d="M 8.6153851,39.39359 C 6.0659846,39.39359 4,37.336667 4,34.778206 L 4,13.239744 c 0,-2.558462 2.0659846,-4.615385 4.6153851,-4.615385 30.7953529,-2.153e-4 0.04901,-0.040277 30.7692299,0 2.547601,0 4.615385,2.056923 4.615385,4.615385 l 0,21.538462 c 0,2.558461 -2.067784,4.615384 -4.615385,4.615384 l -30.76923,0 z m 0,-3.076923 30.7692299,0 c 0.8486,0 1.538462,-0.691692 1.538462,-1.538461 l 0,-18.46154 c 0,-0.846768 -0.689862,-1.53846 -1.538462,-1.53846 l -30.7692299,0 c -0.8486004,0 -1.538462,0.691692 -1.538462,1.53846 l 0,18.46154 c 0,0.846769 0.6898616,1.538461 1.538462,1.538461 z m 3.6538449,-22.769231 8.692308,0 c 0.681847,0 1.23077,-0.548921 1.23077,-1.230769 l 0,-1.230769 c 0,-0.681847 -0.548923,-1.2307701 -1.23077,-1.2307701 l -8.692308,0 c -0.681845,0 -1.230768,0.5489231 -1.230768,1.2307701 l 0,1.230769 c 0,0.681848 0.548923,1.230769 1.230768,1.230769 z m 14.769231,0 8.692309,0 c 0.681845,0 1.230768,-0.548921 1.230768,-1.230769 l 0,-1.230769 c 0,-0.681847 -0.548923,-1.2307701 -1.230768,-1.2307701 l -8.692309,0 c -0.681846,0 -1.230769,0.5489231 -1.230769,1.2307701 l 0,1.230769 c 0,0.681848 0.548923,1.230769 1.230769,1.230769 z"
       id="path480"
       inkscape:connector-curvature="0" /></g></svg>