<?xml version="1.0" encoding="UTF-8" standalone="no"?>
<!-- Created with Inkscape (http://www.inkscape.org/) -->

<svg
   xmlns:dc="http://purl.org/dc/elements/1.1/"
   xmlns:cc="http://creativecommons.org/ns#"
   xmlns:rdf="http://www.w3.org/1999/02/22-rdf-syntax-ns#"
   xmlns:svg="http://www.w3.org/2000/svg"
   xmlns="http://www.w3.org/2000/svg"
   xmlns:sodipodi="http://sodipodi.sourceforge.net/DTD/sodipodi-0.dtd"
   xmlns:inkscape="http://www.inkscape.org/namespaces/inkscape"
   id="svg2"
   version="1.1"
   inkscape:version="0.48.3.1 r9886"
   width="60"
   height="60"
   xml:space="preserve"
   sodipodi:docname="toast.svg"><metadata
     id="metadata8"><rdf:RDF><cc:Work
         rdf:about=""><dc:format>image/svg+xml</dc:format><dc:type
           rdf:resource="http://purl.org/dc/dcmitype/StillImage" /><dc:title></dc:title></cc:Work></rdf:RDF></metadata><defs
     id="defs6"><clipPath
       clipPathUnits="userSpaceOnUse"
       id="clipPath18"><path
         d="M 0,13508.7 0,0 l 14670,0 0,13508.7 -14670,0 z"
         id="path20"
         inkscape:connector-curvature="0" /></clipPath></defs><sodipodi:namedview
     pagecolor="#ffffff"
     bordercolor="#666666"
     borderopacity="1"
     objecttolerance="10"
     gridtolerance="10"
     guidetolerance="10"
     inkscape:pageopacity="0"
     inkscape:pageshadow="2"
     inkscape:window-width="1855"
     inkscape:window-height="1056"
     id="namedview4"
     showgrid="false"
     inkscape:zoom="7.6379267"
     inkscape:cx="10.808398"
     inkscape:cy="15.407789"
     inkscape:window-x="65"
     inkscape:window-y="24"
     inkscape:window-maximized="1"
     inkscape:current-layer="g10" /><g
     id="g10"
     inkscape:groupmode="layer"
     inkscape:label="ink_ext_XXXXXX"
     transform="matrix(1.25,0,0,-1.25,0,60)"><g
       id="g5424"><path
         d="m 14.774795,36.306343 c -0.846821,0 -1.531478,0.702658 -1.531478,1.54948 l 0,4.612745 c 0,0.846821 0.684657,1.531479 1.531478,1.531479 l 0,0 c 0.846822,0 1.531479,-0.684658 1.531479,-1.531479 l 0,-4.612745 c 0,-0.846822 -0.684657,-1.54948 -1.531479,-1.54948 l 0,0"
         style="fill:#807e7e;fill-opacity:1;fill-rule:nonzero;stroke:none"
         id="path1898"
         inkscape:connector-curvature="0" /><path
         d="m 40.93702,8.612639 c 0,-0.8468214 -0.702812,-1.5316327 -1.549633,-1.5316327 l -30.7748169,0 c -0.8468214,0 -1.5314789,0.6848113 -1.5314789,1.5316327 l 0,21.54948 33.8559288,0 0,-21.54948 z m -1.549633,32.324296 -3.081113,0 0,-3.081112 c 0,-1.711644 -1.369315,-3.080959 -3.062958,-3.080959 -1.693796,0 -3.081112,1.369315 -3.081112,3.080959 l 0,3.081112 -12.306296,0 0,-3.081112 c 0,-1.711644 -1.38747,-3.080959 -3.081113,-3.080959 -1.693642,0 -3.081112,1.369315 -3.081112,3.080959 l 0,3.081112 -3.0811129,0 c -2.540464,0 -4.6125915,-2.071973 -4.6125915,-4.630592 l 0,-27.693704 c 0,-2.5406179 2.0721275,-4.6125915 4.6125915,-4.6125915 l 30.7748169,0 c 2.558619,0 4.612591,2.0719736 4.612591,4.6125915 l 0,27.693704 c 0,2.558619 -2.053972,4.630592 -4.612591,4.630592"
         style="fill:#807e7e;fill-opacity:1;fill-rule:nonzero;stroke:none"
         id="path1900"
         inkscape:connector-curvature="0" /><path
         d="m 33.243316,36.306343 c -0.846821,0 -1.549634,0.702658 -1.549634,1.54948 l 0,4.612745 c 0,0.846821 0.702813,1.531479 1.549634,1.531479 l 0,0 c 0.846822,0 1.531479,-0.684658 1.531479,-1.531479 l 0,-4.612745 c 0,-0.846822 -0.684657,-1.54948 -1.531479,-1.54948 l 0,0"
         style="fill:#807e7e;fill-opacity:1;fill-rule:nonzero;stroke:none"
         id="path1902"
         inkscape:connector-curvature="0" /><path
         d="m 10.937021,10.918935 26.15484,0 0,15.385716 -26.15484,0 0,-15.385716 z"
         style="fill:none;stroke:#807e7e;stroke-width:1.53855968000000010;stroke-linecap:round;stroke-linejoin:round;stroke-miterlimit:10;stroke-opacity:1;stroke-dasharray:none"
         id="path1904"
         inkscape:connector-curvature="0" /><path
         d="m 30.937021,26.306343 0,-15.387408"
         style="fill:none;stroke:#807e7e;stroke-width:1.53855968000000010;stroke-linecap:round;stroke-linejoin:round;stroke-miterlimit:10;stroke-opacity:1;stroke-dasharray:none"
         id="path1906"
         inkscape:connector-curvature="0" /><path
         d="m 24.774795,26.306343 0,-15.387408"
         style="fill:none;stroke:#807e7e;stroke-width:1.53855968000000010;stroke-linecap:round;stroke-linejoin:round;stroke-miterlimit:10;stroke-opacity:1;stroke-dasharray:none"
         id="path1908"
         inkscape:connector-curvature="0" /><path
         d="m 17.081091,26.306343 0,-15.387408"
         style="fill:none;stroke:#807e7e;stroke-width:1.53855968000000010;stroke-linecap:round;stroke-linejoin:round;stroke-miterlimit:10;stroke-opacity:1;stroke-dasharray:none"
         id="path1910"
         inkscape:connector-curvature="0" /><path
         d="m 10.937021,15.549527 26.14407,0"
         style="fill:none;stroke:#807e7e;stroke-width:1.53855968000000010;stroke-linecap:round;stroke-linejoin:round;stroke-miterlimit:10;stroke-opacity:1;stroke-dasharray:none"
         id="path1912"
         inkscape:connector-curvature="0" /><path
         d="m 10.937021,21.693751 26.14407,0"
         style="fill:none;stroke:#807e7e;stroke-width:1.53839999999999999;stroke-linecap:round;stroke-linejoin:round;stroke-miterlimit:10;stroke-opacity:1;stroke-dasharray:none"
         id="path1914"
         inkscape:connector-curvature="0" /><path
         d="m 23.999978,16.306343 -6.14407,0 0,4.612592 6.14407,0 0,-4.612592 z m 0.774817,7.693704 -7.693704,0 c -1.279309,0 -2.306296,-1.026986 -2.306296,-2.306296 l 0,-6.144224 c 0,-1.279309 1.026987,-2.324297 2.306296,-2.324297 l 7.693704,0 c 1.27931,0 2.306296,1.044988 2.306296,2.324297 l 0,6.144224 c 0,1.27931 -1.026986,2.306296 -2.306296,2.306296"
         style="fill:#807e7e;fill-opacity:1;fill-rule:nonzero;stroke:none"
         id="path1916"
         inkscape:connector-curvature="0" /></g></g></svg>