<?xml version="1.0" encoding="UTF-8" standalone="no"?>
<!-- Created with Inkscape (http://www.inkscape.org/) -->

<svg
   xmlns:dc="http://purl.org/dc/elements/1.1/"
   xmlns:cc="http://creativecommons.org/ns#"
   xmlns:rdf="http://www.w3.org/1999/02/22-rdf-syntax-ns#"
   xmlns:svg="http://www.w3.org/2000/svg"
   xmlns="http://www.w3.org/2000/svg"
   xmlns:sodipodi="http://sodipodi.sourceforge.net/DTD/sodipodi-0.dtd"
   xmlns:inkscape="http://www.inkscape.org/namespaces/inkscape"
   id="svg2"
   version="1.1"
   inkscape:version="0.48.3.1 r9886"
   width="60"
   height="60"
   xml:space="preserve"
   sodipodi:docname="context_menu.svg"><metadata
     id="metadata8"><rdf:RDF><cc:Work
         rdf:about=""><dc:format>image/svg+xml</dc:format><dc:type
           rdf:resource="http://purl.org/dc/dcmitype/StillImage" /><dc:title /></cc:Work></rdf:RDF></metadata><defs
     id="defs6"><clipPath
       clipPathUnits="userSpaceOnUse"
       id="clipPath18"><path
         d="M 0,13508.7 0,0 l 14670,0 0,13508.7 -14670,0 z"
         id="path20"
         inkscape:connector-curvature="0" /></clipPath></defs><sodipodi:namedview
     pagecolor="#ffffff"
     bordercolor="#666666"
     borderopacity="1"
     objecttolerance="10"
     gridtolerance="10"
     guidetolerance="10"
     inkscape:pageopacity="0"
     inkscape:pageshadow="2"
     inkscape:window-width="1855"
     inkscape:window-height="1056"
     id="namedview4"
     showgrid="false"
     inkscape:zoom="7.6379267"
     inkscape:cx="5.5991743"
     inkscape:cy="26.519942"
     inkscape:window-x="65"
     inkscape:window-y="24"
     inkscape:window-maximized="1"
     inkscape:current-layer="g10" /><g
     id="g10"
     inkscape:groupmode="layer"
     inkscape:label="ink_ext_XXXXXX"
     transform="matrix(1.25,0,0,-1.25,0,60)"><path
       style="fill:#807e7e;fill-opacity:1;fill-rule:nonzero;stroke:none"
       d="M 24,44 C 12.953548,44 4,35.04442 4,24 4,12.95558 12.953548,4 24,4 35.044471,4 44,12.95558 44,24 44,35.04442 35.044471,44 24,44 z m 0,-4.075 C 32.788705,39.925 39.925,32.788665 39.925,24 39.925,15.211335 32.788705,8.075 24,8.075 15.209718,8.075 8.075,15.211335 8.075,24 c 0,8.788665 7.134718,15.925 15.925,15.925 z"
       id="path378"
       inkscape:connector-curvature="0" /><path
       inkscape:connector-curvature="0"
       id="path2988"
       d="m 24,36.982389 c -7.170467,0 -12.982389,-5.813241 -12.982389,-12.982389 0,-7.169148 5.811922,-12.982389 12.982389,-12.982389 7.169181,0 12.982389,5.813241 12.982389,12.982389 0,7.169148 -5.813208,12.982389 -12.982389,12.982389 z m 0,-2.645162 c 5.704919,0 10.337227,-4.632334 10.337227,-10.337227 0,-5.704893 -4.632308,-10.337227 -10.337227,-10.337227 -5.705943,0 -10.337227,4.632334 -10.337227,10.337227 0,5.704893 4.631284,10.337227 10.337227,10.337227 z"
       style="fill:#807e7e;fill-opacity:1;fill-rule:nonzero;stroke:none" /><path
       style="fill:#807e7e;fill-opacity:1;fill-rule:nonzero;stroke:none"
       d="m 24,31.745366 c -4.277941,0 -7.745366,-3.468212 -7.745366,-7.745366 0,-4.277154 3.467425,-7.745366 7.745366,-7.745366 4.277173,0 7.745366,3.468212 7.745366,7.745366 0,4.277154 -3.468193,7.745366 -7.745366,7.745366 z m 0,-1.578119 c 3.403587,0 6.167247,-2.763676 6.167247,-6.167247 0,-3.403571 -2.76366,-6.167247 -6.167247,-6.167247 -3.404197,0 -6.167247,2.763676 -6.167247,6.167247 0,3.403571 2.76305,6.167247 6.167247,6.167247 z"
       id="path2990"
       inkscape:connector-curvature="0" /><path
       inkscape:connector-curvature="0"
       id="path2992"
       d="m 24,27.660488 c -2.02177,0 -3.660488,-1.63909 -3.660488,-3.660488 0,-2.021398 1.638718,-3.660488 3.660488,-3.660488 2.021407,0 3.660488,1.63909 3.660488,3.660488 0,2.021398 -1.639081,3.660488 -3.660488,3.660488 z m 0,-0.745825 c 1.608547,0 2.914663,-1.306123 2.914663,-2.914663 0,-1.60854 -1.306116,-2.914663 -2.914663,-2.914663 -1.608836,0 -2.914663,1.306123 -2.914663,2.914663 0,1.60854 1.305827,2.914663 2.914663,2.914663 z"
       style="fill:#807e7e;fill-opacity:1;fill-rule:nonzero;stroke:none" /></g></svg>