<?xml version="1.0" encoding="UTF-8" standalone="no"?>
<!-- Created with Inkscape (http://www.inkscape.org/) -->

<svg
   xmlns:dc="http://purl.org/dc/elements/1.1/"
   xmlns:cc="http://creativecommons.org/ns#"
   xmlns:rdf="http://www.w3.org/1999/02/22-rdf-syntax-ns#"
   xmlns:svg="http://www.w3.org/2000/svg"
   xmlns="http://www.w3.org/2000/svg"
   xmlns:sodipodi="http://sodipodi.sourceforge.net/DTD/sodipodi-0.dtd"
   xmlns:inkscape="http://www.inkscape.org/namespaces/inkscape"
   id="svg2"
   version="1.1"
   inkscape:version="0.48.3.1 r9886"
   width="60"
   height="60"
   xml:space="preserve"
   sodipodi:docname="time_picker.svg"><metadata
     id="metadata8"><rdf:RDF><cc:Work
         rdf:about=""><dc:format>image/svg+xml</dc:format><dc:type
           rdf:resource="http://purl.org/dc/dcmitype/StillImage" /><dc:title></dc:title></cc:Work></rdf:RDF></metadata><defs
     id="defs6"><clipPath
       clipPathUnits="userSpaceOnUse"
       id="clipPath18"><path
         d="M 0,13508.7 0,0 l 14670,0 0,13508.7 -14670,0 z"
         id="path20"
         inkscape:connector-curvature="0" /></clipPath></defs><sodipodi:namedview
     pagecolor="#ffffff"
     bordercolor="#666666"
     borderopacity="1"
     objecttolerance="10"
     gridtolerance="10"
     guidetolerance="10"
     inkscape:pageopacity="0"
     inkscape:pageshadow="2"
     inkscape:window-width="1855"
     inkscape:window-height="1056"
     id="namedview4"
     showgrid="false"
     inkscape:zoom="5.4008298"
     inkscape:cx="50.948002"
     inkscape:cy="5.530882"
     inkscape:window-x="65"
     inkscape:window-y="24"
     inkscape:window-maximized="1"
     inkscape:current-layer="g10" /><g
     id="g10"
     inkscape:groupmode="layer"
     inkscape:label="ink_ext_XXXXXX"
     transform="matrix(1.25,0,0,-1.25,0,60)"><g
       id="g5522"><path
         d="m 4.0016663,42.406809 c 0,0.846748 0.6900442,1.5315 1.5368075,1.5315 l 36.9229652,0 c 0.846763,0 1.538607,-0.684752 1.538607,-1.5315 l 0,-4.612192 c 0,-0.846748 -0.691844,-1.549345 -1.538607,-1.549345 l -36.9229652,0 c -0.8467633,0 -1.5368075,0.702597 -1.5368075,1.549345 l 0,4.612192"
         style="fill:#807e7e;fill-opacity:1;fill-rule:nonzero;stroke:none"
         id="path860"
         inkscape:connector-curvature="0" /><path
         d="m 21.565933,15.778555 8.147041,8.143334 c 0.904439,0.9009 5.150917,3.585294 6.140015,2.612396 0.990914,-0.990898 -1.803447,-5.47694 -2.54212,-6.21569 l -8.148857,-8.143334 -3.596079,3.603294"
         style="fill:#807e7e;fill-opacity:1;fill-rule:nonzero;stroke:none"
         id="path862"
         inkscape:connector-curvature="0" /><path
         d="M 23.690079,10.769911 17.786074,4.8605214 C 16.88345,3.9596209 15.067388,3.7074734 14.07829,4.6983716 13.087377,5.6892698 13.449506,7.7250648 14.18998,8.4638155 l 5.90219,5.9093905 3.597894,-3.603295"
         style="fill:#807e7e;fill-opacity:1;fill-rule:nonzero;stroke:none"
         id="path864"
         inkscape:connector-curvature="0" /><path
         d="m 21.724483,19.327696 -14.6474017,0 c -0.8467633,0 -1.5386075,0.684599 -1.5386075,1.5315 l 0,16.935421 c 0,0.846748 0.6918442,1.531346 1.5386075,1.531346 l 33.8457497,0 c 0.846764,0 1.538608,-0.684598 1.538608,-1.531346 l 0,-16.935421 c 0,-0.846901 -0.691844,-1.5315 -1.538608,-1.5315 l -5.383326,0"
         style="fill:none;stroke:#807e7e;stroke-width:3.07685280000000017;stroke-linecap:round;stroke-linejoin:round;stroke-miterlimit:10;stroke-opacity:1;stroke-dasharray:none"
         id="path866"
         inkscape:connector-curvature="0" /><path
         d="m 10.9236,31.632926 12.30706,0"
         style="fill:none;stroke:#807e7e;stroke-width:3.07685280000000017;stroke-linecap:round;stroke-linejoin:round;stroke-miterlimit:10;stroke-opacity:1;stroke-dasharray:none"
         id="path1024"
         inkscape:connector-curvature="0" /><path
         d="m 30.923682,31.632926 6.15443,0"
         style="fill:none;stroke:#807e7e;stroke-width:3.07685280000000017;stroke-linecap:round;stroke-linejoin:round;stroke-miterlimit:10;stroke-opacity:1;stroke-dasharray:none"
         id="path1026"
         inkscape:connector-curvature="0" /><path
         d="m 10.9236,27.020734 12.30706,0"
         style="fill:none;stroke:#807e7e;stroke-width:3.07685280000000017;stroke-linecap:round;stroke-linejoin:round;stroke-miterlimit:10;stroke-opacity:1;stroke-dasharray:none"
         id="path1028"
         inkscape:connector-curvature="0" /><path
         d="M 25.538556,16.246851 36.308809,27.020734"
         style="fill:none;stroke:#807e7e;stroke-width:1.53842640000000008;stroke-linecap:round;stroke-linejoin:round;stroke-miterlimit:10;stroke-opacity:1;stroke-dasharray:none"
         id="path1030"
         inkscape:connector-curvature="0" /><path
         d="m 20.924549,5.4911209 6.19406,6.1435381"
         style="fill:none;stroke:#807e7e;stroke-width:2.46148229000000018;stroke-linecap:round;stroke-linejoin:round;stroke-miterlimit:10;stroke-opacity:1;stroke-dasharray:none"
         id="path1032"
         inkscape:connector-curvature="0" /></g></g></svg>