<?xml version="1.0" encoding="UTF-8" standalone="no"?>
<!-- Created with Inkscape (http://www.inkscape.org/) -->

<svg
   xmlns:dc="http://purl.org/dc/elements/1.1/"
   xmlns:cc="http://creativecommons.org/ns#"
   xmlns:rdf="http://www.w3.org/1999/02/22-rdf-syntax-ns#"
   xmlns:svg="http://www.w3.org/2000/svg"
   xmlns="http://www.w3.org/2000/svg"
   xmlns:sodipodi="http://sodipodi.sourceforge.net/DTD/sodipodi-0.dtd"
   xmlns:inkscape="http://www.inkscape.org/namespaces/inkscape"
   id="svg2"
   version="1.1"
   inkscape:version="0.48.3.1 r9886"
   width="32"
   height="32"
   xml:space="preserve"
   sodipodi:docname="disable_music_light.svg"><metadata
     id="metadata8"><rdf:RDF><cc:Work
         rdf:about=""><dc:format>image/svg+xml</dc:format><dc:type
           rdf:resource="http://purl.org/dc/dcmitype/StillImage" /><dc:title></dc:title></cc:Work></rdf:RDF></metadata><defs
     id="defs6"><clipPath
       clipPathUnits="userSpaceOnUse"
       id="clipPath18"><path
         d="M 0,13508.7 0,0 l 14670,0 0,13508.7 -14670,0 z"
         id="path20"
         inkscape:connector-curvature="0" /></clipPath></defs><sodipodi:namedview
     pagecolor="#ffffff"
     bordercolor="#666666"
     borderopacity="1"
     objecttolerance="10"
     gridtolerance="10"
     guidetolerance="10"
     inkscape:pageopacity="0"
     inkscape:pageshadow="2"
     inkscape:window-width="1920"
     inkscape:window-height="1021"
     id="namedview4"
     showgrid="false"
     inkscape:zoom="10.801659"
     inkscape:cx="11.003692"
     inkscape:cy="11.473752"
     inkscape:window-x="0"
     inkscape:window-y="27"
     inkscape:window-maximized="1"
     inkscape:current-layer="g10" /><g
     id="g10"
     inkscape:groupmode="layer"
     inkscape:label="ink_ext_XXXXXX"
     transform="matrix(1.25,0,0,-1.25,0,32)"><g
       id="g5358"
       style="fill:#ffffff;fill-opacity:1;opacity:0.80000000000000004"
       transform="matrix(0.99410103,0,0,0.99410103,0.10776277,0.04116235)"><path
         inkscape:connector-curvature="0"
         id="path3196"
         d="M 21.5,3.1875 A 0.87225731,0.87225731 0 0 0 20.90625,3.46875 L 3.46875,20.90625 A 0.87225731,0.87225731 0 1 0 4.6875,22.125 L 22.15625,4.6875 A 0.87225731,0.87225731 0 0 0 21.5,3.1875 z"
         style="font-size:medium;font-style:normal;font-variant:normal;font-weight:normal;font-stretch:normal;text-indent:0;text-align:start;text-decoration:none;line-height:normal;letter-spacing:normal;word-spacing:normal;text-transform:none;direction:ltr;block-progression:tb;writing-mode:lr-tb;text-anchor:start;baseline-shift:baseline;color:#000000;fill:#ffffff;fill-opacity:1;fill-rule:nonzero;stroke:none;stroke-width:1.74434018000000002;marker:none;visibility:visible;display:inline;overflow:visible;enable-background:accumulate;font-family:Sans;-inkscape-font-specification:Sans" /><path
         d="m 15.685426,8.7884683 0,12.4712457 c 0,1.10822 -0.970374,1.396253 -1.71599,0.637354 l -5.7504663,-5.635043 0,0 7.4664563,-7.4735567"
         style="fill:#ffffff;fill-opacity:1;fill-rule:nonzero;stroke:none"
         id="path3198"
         inkscape:connector-curvature="0" /><path
         d="m 6.104747,16.262025 -0.8886521,0 c -0.4800413,0 -0.8681561,-0.392214 -0.8681561,-0.872273 l 0,-5.232608 c 0,-0.4800585 0.3881148,-0.871252 0.8681561,-0.871252 l 3.0131664,0 5.7095617,-5.6084858 c 0.878447,-0.8722727 1.746603,-0.4187715 1.746603,0.7670632 l 0,2.2419691 -9.580679,9.5755865"
         style="fill:#ffffff;fill-opacity:1;fill-rule:nonzero;stroke:none"
         id="path3200"
         inkscape:connector-curvature="0" /></g></g></svg>