<?xml version="1.0" encoding="UTF-8" standalone="no"?>
<!-- Created with Inkscape (http://www.inkscape.org/) -->

<svg
   xmlns:dc="http://purl.org/dc/elements/1.1/"
   xmlns:cc="http://creativecommons.org/ns#"
   xmlns:rdf="http://www.w3.org/1999/02/22-rdf-syntax-ns#"
   xmlns:svg="http://www.w3.org/2000/svg"
   xmlns="http://www.w3.org/2000/svg"
   xmlns:sodipodi="http://sodipodi.sourceforge.net/DTD/sodipodi-0.dtd"
   xmlns:inkscape="http://www.inkscape.org/namespaces/inkscape"
   id="svg2"
   version="1.1"
   inkscape:version="0.48.3.1 r9886"
   width="72"
   height="72"
   xml:space="preserve"
   sodipodi:docname="All_Icons.svg"><metadata
     id="metadata8"><rdf:RDF><cc:Work
         rdf:about=""><dc:format>image/svg+xml</dc:format><dc:type
           rdf:resource="http://purl.org/dc/dcmitype/StillImage" /><dc:title></dc:title></cc:Work></rdf:RDF></metadata><defs
     id="defs6"><clipPath
       clipPathUnits="userSpaceOnUse"
       id="clipPath18"><path
         d="M 0,13508.7 0,0 l 14670,0 0,13508.7 -14670,0 z"
         id="path20"
         inkscape:connector-curvature="0" /></clipPath></defs><sodipodi:namedview
     pagecolor="#ffffff"
     bordercolor="#666666"
     borderopacity="1"
     objecttolerance="10"
     gridtolerance="10"
     guidetolerance="10"
     inkscape:pageopacity="0"
     inkscape:pageshadow="2"
     inkscape:window-width="1855"
     inkscape:window-height="1056"
     id="namedview4"
     showgrid="false"
     inkscape:zoom="7.6379267"
     inkscape:cx="15.264887"
     inkscape:cy="37.950945"
     inkscape:window-x="65"
     inkscape:window-y="24"
     inkscape:window-maximized="1"
     inkscape:current-layer="g10" /><g
     id="g10"
     inkscape:groupmode="layer"
     inkscape:label="ink_ext_XXXXXX"
     transform="matrix(1.25,0,0,-1.25,0,72)"><g
       id="g5350"><path
         d="M 37.598725,21.14111 50.215089,8.2271712 34.826842,19.227117 28.796544,15.306779 22.770833,19.227117 7.3848902,8.2271712 19.99897,21.14111 4.7444661,33.040159 l 8.3017669,-3.297502 0,10.884555 31.505209,0 0,-10.884555 8.301767,3.297502 L 37.598725,21.14111 z m -7.628403,32.861013 c -0.696422,0.530483 -1.646527,0.530483 -2.342948,0 C 3.2017327,35.899728 3.2017327,33.847305 3.2017327,32.740458 l 0,-23.6370246 c 0,-3.251425 2.6473358,-5.9034473 5.9080944,-5.9034473 l 39.3803449,0 c 3.258455,0 5.908094,2.6520223 5.908094,5.9034473 l 0,23.6370246 c 0,1.106847 0,3.15927 -24.427944,21.261665"
         style="fill:#807e7e;fill-opacity:1;fill-rule:nonzero;stroke:none"
         id="path36"
         inkscape:connector-curvature="0" /><path
         d="m 18.954328,34.700529 19.691344,0"
         style="fill:none;stroke:#807e7e;stroke-width:3.93826603999999980;stroke-linecap:butt;stroke-linejoin:miter;stroke-miterlimit:10;stroke-opacity:1;stroke-dasharray:none"
         id="path700"
         inkscape:connector-curvature="0" /><path
         d="m 18.954328,28.797081 13.783249,0"
         style="fill:none;stroke:#807e7e;stroke-width:3.93826603999999980;stroke-linecap:butt;stroke-linejoin:miter;stroke-miterlimit:10;stroke-opacity:1;stroke-dasharray:none"
         id="path702"
         inkscape:connector-curvature="0" /></g></g></svg>