<?xml version="1.0" encoding="UTF-8" standalone="no"?>
<!-- Created with Inkscape (http://www.inkscape.org/) -->

<svg
   xmlns:dc="http://purl.org/dc/elements/1.1/"
   xmlns:cc="http://creativecommons.org/ns#"
   xmlns:rdf="http://www.w3.org/1999/02/22-rdf-syntax-ns#"
   xmlns:svg="http://www.w3.org/2000/svg"
   xmlns="http://www.w3.org/2000/svg"
   xmlns:sodipodi="http://sodipodi.sourceforge.net/DTD/sodipodi-0.dtd"
   xmlns:inkscape="http://www.inkscape.org/namespaces/inkscape"
   id="svg2"
   version="1.1"
   inkscape:version="0.48.3.1 r9886"
   width="72"
   height="72"
   xml:space="preserve"
   sodipodi:docname="alert_dialog.svg"><metadata
     id="metadata8"><rdf:RDF><cc:Work
         rdf:about=""><dc:format>image/svg+xml</dc:format><dc:type
           rdf:resource="http://purl.org/dc/dcmitype/StillImage" /><dc:title></dc:title></cc:Work></rdf:RDF></metadata><defs
     id="defs6"><clipPath
       clipPathUnits="userSpaceOnUse"
       id="clipPath18"><path
         d="M 0,13508.7 0,0 l 14670,0 0,13508.7 -14670,0 z"
         id="path20"
         inkscape:connector-curvature="0" /></clipPath></defs><sodipodi:namedview
     pagecolor="#ffffff"
     bordercolor="#666666"
     borderopacity="1"
     objecttolerance="10"
     gridtolerance="10"
     guidetolerance="10"
     inkscape:pageopacity="0"
     inkscape:pageshadow="2"
     inkscape:window-width="1855"
     inkscape:window-height="1056"
     id="namedview4"
     showgrid="false"
     inkscape:zoom="7.6379267"
     inkscape:cx="14.95366"
     inkscape:cy="34.116176"
     inkscape:window-x="65"
     inkscape:window-y="24"
     inkscape:window-maximized="1"
     inkscape:current-layer="g10" /><g
     id="g10"
     inkscape:groupmode="layer"
     inkscape:label="ink_ext_XXXXXX"
     transform="matrix(1.25,0,0,-1.25,0,72)"><g
       id="g5438"><path
         d="m 28.803539,7.1981343 c -11.913648,0 -21.6065291,9.6928807 -21.6065291,21.6018537 0,11.908993 9.6928811,21.601874 21.6065291,21.601874 11.908933,0 21.599616,-9.692881 21.599616,-21.601874 0,-11.908973 -9.690683,-21.6018537 -21.599616,-21.6018537 z m 0,47.1983567 c -14.14147,0 -25.603496,-11.450336 -25.603496,-25.596503 0,-14.148505 11.462026,-25.5964827 25.603496,-25.5964827 14.148565,0 25.596503,11.4479777 25.596503,25.5964827 0,14.146167 -11.447938,25.596503 -25.596503,25.596503"
         style="fill:#807e7e;fill-opacity:1;fill-rule:nonzero;stroke:none"
         id="path2296"
         inkscape:connector-curvature="0" /><path
         d="m 43.111164,25.842048 c 0,0 2.576536,0.439953 4.095201,0.418892 1.539846,-0.01799 3.278718,-0.498442 3.278718,-0.498442"
         style="fill:none;stroke:#807e7e;stroke-width:0.49956204999999998;stroke-linecap:round;stroke-linejoin:round;stroke-miterlimit:10;stroke-opacity:1;stroke-dasharray:none"
         id="path2304"
         inkscape:connector-curvature="0" /><path
         d="m 42.472326,25.004284 c 0,0 2.936818,0.257414 4.156147,0.23869 1.677925,-0.03976 3.496127,-0.578012 3.496127,-0.578012"
         style="fill:none;stroke:#807e7e;stroke-width:0.49956204999999998;stroke-linecap:round;stroke-linejoin:round;stroke-miterlimit:10;stroke-opacity:1;stroke-dasharray:none"
         id="path2306"
         inkscape:connector-curvature="0" /><path
         d="m 16.08254,25.982464 c 0,0 -3.648293,0.339322 -4.783256,0.339322 -1.1373,0 -3.3066134,-0.339322 -4.3409643,-0.638858"
         style="fill:none;stroke:#807e7e;stroke-width:0.49956204999999998;stroke-linecap:round;stroke-linejoin:round;stroke-miterlimit:10;stroke-opacity:1;stroke-dasharray:none"
         id="path2308"
         inkscape:connector-curvature="0" /><path
         d="m 16.922642,24.842806 c 0,0 -3.837827,0.360383 -5.574221,0.140477 C 9.2750635,24.744592 7.4497478,23.665781 7.4497478,23.665781"
         style="fill:none;stroke:#807e7e;stroke-width:0.49956204999999998;stroke-linecap:round;stroke-linejoin:round;stroke-miterlimit:10;stroke-opacity:1;stroke-dasharray:none"
         id="path2310"
         inkscape:connector-curvature="0" /><path
         d="m 15.424958,28.799988 c 0,6.133529 6.433046,11.768596 14.356722,11.768596 7.954209,0 14.368571,-5.635067 14.368571,-11.768596 0,-6.154571 -4.59616,-10.490859 -14.368571,-10.490859 -9.741958,0 -14.356722,4.336288 -14.356722,10.490859"
         style="fill:#807e7e;fill-opacity:1;fill-rule:nonzero;stroke:none"
         id="path2318"
         inkscape:connector-curvature="0" /><path
         d="m 35.217902,39.391479 c 0,0 2.258215,3.11708 6.414362,3.11708 1.659142,-1.659162 0.519543,-6.414342 -0.02198,-7.834814 l -6.393181,4.717734"
         style="fill:#807e7e;fill-opacity:1;fill-rule:nonzero;stroke:none"
         id="path2320"
         inkscape:connector-curvature="0" /><path
         d="m 24.516408,39.391479 c 0,0 -2.262912,3.11708 -6.416661,3.11708 -1.663837,-1.659162 -0.524199,-6.414342 0.01399,-7.834814 l 6.402633,4.717734"
         style="fill:#807e7e;fill-opacity:1;fill-rule:nonzero;stroke:none"
         id="path2322"
         inkscape:connector-curvature="0" /><path
         d="m 23.556951,12.814478 c 0,0 -3.170893,0 -3.762953,0 -1.642776,0 -3.098337,0.718429 -3.807413,2.017207 -0.783931,1.457899 -1.525759,3.098337 -3.475106,4.476685 -0.339322,0.241048 -0.145073,0.58035 0.519523,0.5008 0.65992,-0.06095 1.91188,-0.222324 2.868999,-1.460256 0.954781,-1.258994 1.996145,-2.698189 3.779338,-2.698189 1.785531,0 3.702106,-0.03976 4.680286,1.24029 l -0.802674,-4.076537"
         style="fill:#807e7e;fill-opacity:1;fill-rule:nonzero;stroke:none"
         id="path2324"
         inkscape:connector-curvature="0" /><path
         d="m 31.380075,19.427725 -3.156825,0 c -2.997766,0 -5.415141,-4.256718 -5.415141,-7.233382 l 0,-5.4759471 c 0,-1.6778652 0.788627,-2.3565088 1.998483,-2.6560455 l 0,6.5336776 c 0,0.559288 0.44463,0.999242 0.999242,0.999242 0.552275,0 0.999262,-0.439954 0.999262,-0.999242 l 0,-6.7326028 c 0.458597,0 0.919592,0 1.418154,0 l 0.580289,0 0,7.9518108 c 0,0.559289 0.440014,0.999242 0.999322,0.999242 0.559309,0 0.999122,-0.439953 0.999122,-0.999242 l 0,-7.9518108 0.578092,0 c 0.50076,0 0.959357,0 1.420352,0 l 0,6.7326028 c 0,0.559288 0.440013,0.999242 0.999321,0.999242 0.559309,0 0.999322,-0.439954 0.999322,-0.999242 l 0,-6.5336776 c 1.198147,0.2995367 1.998443,0.9781803 1.998443,2.6560455 l 0,5.4759471 c 0,2.976664 -2.419673,7.233382 -5.417438,7.233382"
         style="fill:#807e7e;fill-opacity:1;fill-rule:nonzero;stroke:none"
         id="path2326"
         inkscape:connector-curvature="0" /></g></g></svg>