<?xml version="1.0" encoding="UTF-8" standalone="no"?>
<!-- Generator: Adobe Illustrator 15.0.0, SVG Export Plug-In . SVG Version: 6.00 Build 0)  -->

<svg
   xmlns:dc="http://purl.org/dc/elements/1.1/"
   xmlns:cc="http://creativecommons.org/ns#"
   xmlns:rdf="http://www.w3.org/1999/02/22-rdf-syntax-ns#"
   xmlns:svg="http://www.w3.org/2000/svg"
   xmlns="http://www.w3.org/2000/svg"
   xmlns:sodipodi="http://sodipodi.sourceforge.net/DTD/sodipodi-0.dtd"
   xmlns:inkscape="http://www.inkscape.org/namespaces/inkscape"
   version="1.1"
   id="Layer_1"
   x="0px"
   y="0px"
   width="60"
   height="60"
   viewBox="0 0 60 60"
   enable-background="new 0 0 650 690"
   xml:space="preserve"
   inkscape:version="0.48.3.1 r9886"
   sodipodi:docname="github.svg"><metadata
   id="metadata27"><rdf:RDF><cc:Work
       rdf:about=""><dc:format>image/svg+xml</dc:format><dc:type
         rdf:resource="http://purl.org/dc/dcmitype/StillImage" /></cc:Work></rdf:RDF></metadata><defs
   id="defs25">
	
	
	
	
</defs><sodipodi:namedview
   pagecolor="#ffffff"
   bordercolor="#666666"
   borderopacity="1"
   objecttolerance="10"
   gridtolerance="10"
   guidetolerance="10"
   inkscape:pageopacity="0"
   inkscape:pageshadow="2"
   inkscape:window-width="1855"
   inkscape:window-height="1056"
   id="namedview23"
   showgrid="false"
   inkscape:zoom="10.944928"
   inkscape:cx="4.6037891"
   inkscape:cy="30.422937"
   inkscape:window-x="65"
   inkscape:window-y="24"
   inkscape:window-maximized="1"
   inkscape:current-layer="Layer_1" />


<g
   id="g3001"
   style="fill:#33b5e5;fill-opacity:1;"><path
     sodipodi:nodetypes="cscsccscsccccssccccscscccccscccssccccccccccccccsscccccs"
     inkscape:connector-curvature="0"
     id="path5"
     d="M 7.59375,7.65625 C 6.7987551,9.0011313 6.3256246,11.007516 6.1875,13.09375 6.0493754,15.180084 6.262037,17.340094 6.90625,19 c -0.4187937,0.712221 -0.9391466,1.36806 -1.4375,2.0625 -0.4983535,0.694441 -0.9747903,1.420851 -1.375,2.25 -1.1753146,2.435112 -1.6802411,5.72289 -1.59375,9.03125 0.086391,3.30826 0.7440862,6.637988 1.875,9.25 1.1077089,2.558368 2.779625,4.545449 4.875,6.09375 2.095476,1.548201 4.634945,2.678275 7.5,3.46875 0.934627,0.257866 1.93367,0.461369 2.96875,0.65625 1.03508,0.194982 2.103992,0.363692 3.15625,0.53125 l 7.53125,0 7.53125,0 c 4.41205,-0.45988 8.334076,-1.369863 11.46875,-3.125 3.134675,-1.755136 5.48919,-4.356058 6.71875,-8.125 0.616387,-1.889344 1.047585,-4.095492 1.25,-6.375 0.202516,-2.279507 0.165103,-4.630726 -0.15625,-6.78125 -0.307189,-2.056198 -0.996729,-3.893637 -1.875,-5.5 -0.878271,-1.606264 -1.936675,-2.96405 -2.9375,-4.125 0.496947,-1.69617 0.582547,-3.692453 0.40625,-5.59375 C 52.636203,10.817553 52.189142,9.0017341 51.59375,7.65625 49.778442,7.593064 48.180753,7.8749388 46.6875,8.375 c -1.493252,0.5000612 -2.867138,1.2253969 -4.21875,2 -0.478664,0.27434 -0.929878,0.608906 -1.34375,0.90625 -0.413972,0.297245 -0.810897,0.55065 -1.1875,0.59375 -0.293929,0.03355 -0.674756,-0.04173 -1.09375,-0.15625 -0.419095,-0.114518 -0.872008,-0.2658 -1.3125,-0.34375 -2.907246,-0.514725 -6.130804,-0.700021 -9.28125,-0.5625 -3.150345,0.137522 -6.210726,0.606625 -8.78125,1.375 C 17.752288,11.20566 16.075437,10.053708 14.1875,9.15625 12.299563,8.2586914 10.177534,7.604416 7.59375,7.65625 z M 19.3125,28.5 c 0.399908,-0.0048 0.801412,-0.01276 1.21875,0 0.834674,0.02551 1.691654,0.0999 2.53125,0.15625 0.769078,0.05163 1.619902,0.02165 2.4375,0.03125 0.817597,0.0096 1.60007,0.03925 2.28125,0.25 3.101297,0.131809 2.743735,0.06383 3.84375,0 2.444453,-0.07785 5.348637,-0.4293 8.09375,-0.4375 2.745213,-0.0083 5.321126,0.339898 7.0625,1.65625 0.211457,0.159722 0.582988,0.482198 0.90625,0.78125 0.323261,0.298952 0.59165,0.57457 0.59375,0.625 0.465503,0.49365 0.984812,0.80872 1.40625,2.09375 0.290112,0.683289 0.523559,1.154162 0.6875,1.59375 0.163741,0.439588 0.25343,0.866016 0.3125,1.4375 0.309801,3.00107 -0.139544,5.500951 -1.125,7.46875 -0.985355,1.967898 -2.489247,3.401773 -4.28125,4.28125 -1.980456,0.972096 -4.384573,1.453442 -7,1.6875 -2.615527,0.234018 -5.456778,0.21875 -8.28125,0.21875 -2.756063,0 -5.482818,-0.116658 -8,-0.46875 -2.517182,-0.352093 -4.809927,-0.935468 -6.75,-1.9375 -1.884321,-0.9732 -3.476974,-2.454817 -4.5,-4.375 -1.0229254,-1.920283 -1.4765898,-4.27296 -1.125,-6.96875 0.2596742,-1.991606 1.186203,-3.910779 2.65625,-5.375 1.470048,-1.464422 3.477358,-2.469807 5.875,-2.65625 0.371731,-0.02898 0.756342,-0.05769 1.15625,-0.0625 z"
     style="fill:#33b5e5;fill-opacity:1;fill-rule:evenodd" /><path
     clip-rule="evenodd"
     d="m 18.652679,34.37349 c 2.169007,-0.407844 3.261046,1.841327 3.239649,4.072214 -0.0214,2.230989 -1.156128,4.443694 -3.440558,3.963121 -1.542173,-0.324367 -2.253389,-2.190103 -2.198341,-4.046196 0.05505,-1.856093 0.876363,-3.702844 2.39925,-3.989139 z"
     id="path7"
     inkscape:connector-curvature="0"
     style="fill:#33b5e5;fill-opacity:1;fill-rule:evenodd" /><path
     clip-rule="evenodd"
     d="m 29.902147,42.810541 c 0.488208,-0.140435 0.83377,-0.07745 1.060295,0.102062 0.226524,0.179713 0.33401,0.475952 0.345763,0.801926 0.04832,1.329512 -0.942964,1.287723 -1.626354,0.821415 -0.68339,-0.466309 -1.059089,-1.357037 0.220296,-1.725403 z"
     id="path9"
     inkscape:connector-curvature="0"
     style="fill:#33b5e5;fill-opacity:1;fill-rule:evenodd" /><path
     clip-rule="evenodd"
     d="m 27.792909,46.024675 c 0.03345,0 0.067,0 0.100455,0 0.03345,0 0.0669,0 0.100454,0 0.357818,0.416484 0.710914,0.843716 1.124485,1.141663 0.41357,0.297847 0.887513,0.466208 1.487024,0.36495 0.418291,-0.07062 0.696148,-0.299555 0.943868,-0.584644 0.24772,-0.285089 0.465505,-0.626432 0.763552,-0.921969 0.477259,0.378311 0.293829,0.900974 -0.13059,1.343978 -0.42452,0.443003 -1.090029,0.806346 -1.57683,0.865815 -0.670432,0.08177 -1.445235,-0.142947 -2.016619,-0.551896 -0.571283,-0.40905 -0.939247,-1.002332 -0.795799,-1.657897 z"
     id="path11"
     inkscape:connector-curvature="0"
     style="fill:#33b5e5;fill-opacity:1;fill-rule:evenodd" /><path
     style="fill:#33b5e5;fill-opacity:1;fill-rule:evenodd"
     inkscape:connector-curvature="0"
     id="path2999"
     d="m 40.652679,34.37349 c 2.169007,-0.407844 3.261046,1.841327 3.239649,4.072214 -0.0214,2.230989 -1.156128,4.443694 -3.440558,3.963121 -1.542173,-0.324367 -2.253389,-2.190103 -2.198341,-4.046196 0.05505,-1.856093 0.876363,-3.702844 2.39925,-3.989139 z"
     clip-rule="evenodd" /></g></svg>