<?xml version="1.0" encoding="UTF-8" standalone="no"?>
<!-- Created with Inkscape (http://www.inkscape.org/) -->

<svg
   xmlns:dc="http://purl.org/dc/elements/1.1/"
   xmlns:cc="http://creativecommons.org/ns#"
   xmlns:rdf="http://www.w3.org/1999/02/22-rdf-syntax-ns#"
   xmlns:svg="http://www.w3.org/2000/svg"
   xmlns="http://www.w3.org/2000/svg"
   xmlns:sodipodi="http://sodipodi.sourceforge.net/DTD/sodipodi-0.dtd"
   xmlns:inkscape="http://www.inkscape.org/namespaces/inkscape"
   id="svg2"
   version="1.1"
   inkscape:version="0.48.3.1 r9886"
   width="72"
   height="72"
   xml:space="preserve"
   sodipodi:docname="github.svg"><metadata
     id="metadata8"><rdf:RDF><cc:Work
         rdf:about=""><dc:format>image/svg+xml</dc:format><dc:type
           rdf:resource="http://purl.org/dc/dcmitype/StillImage" /><dc:title></dc:title></cc:Work></rdf:RDF></metadata><defs
     id="defs6"><clipPath
       clipPathUnits="userSpaceOnUse"
       id="clipPath18"><path
         d="M 0,13508.7 0,0 l 14670,0 0,13508.7 -14670,0 z"
         id="path20"
         inkscape:connector-curvature="0" /></clipPath></defs><sodipodi:namedview
     pagecolor="#ffffff"
     bordercolor="#666666"
     borderopacity="1"
     objecttolerance="10"
     gridtolerance="10"
     guidetolerance="10"
     inkscape:pageopacity="0"
     inkscape:pageshadow="2"
     inkscape:window-width="1855"
     inkscape:window-height="1056"
     id="namedview4"
     showgrid="false"
     inkscape:zoom="10.801659"
     inkscape:cx="39.949264"
     inkscape:cy="33.219656"
     inkscape:window-x="65"
     inkscape:window-y="24"
     inkscape:window-maximized="1"
     inkscape:current-layer="g10" /><g
     id="g10"
     inkscape:groupmode="layer"
     inkscape:label="ink_ext_XXXXXX"
     transform="matrix(1.25,0,0,-1.25,0,72)"><g
       id="g5489"><path
         d="m 54.353915,44.790039 c -0.23062,5.315805 -4.617013,9.609958 -9.988174,9.609958 l -31.133734,0 c -5.3711417,0 -9.7598385,-4.294153 -9.9904588,-9.609958 l 51.1123668,0"
         style="fill:#807e7e;fill-opacity:1;fill-rule:evenodd;stroke:none"
         id="path2142"
         inkscape:connector-curvature="0" /><path
         d="m 20.330507,20.115996 c -0.352853,0 -2.463015,-0.08074 -4.107349,-0.611161 -0.864821,-0.315948 -3.357827,-1.240733 -3.357827,-3.978184 0,-2.737471 2.693635,-4.706969 6.877095,-4.706969 3.7568,0 5.747054,1.773478 5.747054,4.174224 0,1.969499 -1.286853,2.993456 -4.257248,5.082882 -0.311341,0.03919 -0.509665,0.03919 -0.901725,0.03919"
         style="fill:#807e7e;fill-opacity:1;fill-rule:evenodd;stroke:none"
         id="path2144"
         inkscape:connector-curvature="0" /><path
         d="m 18.414061,37.30643 c -1.017045,0 -2.110183,-0.491232 -2.742079,-1.279961 -0.661889,-0.786405 -0.864821,-1.831118 -0.864821,-2.836623 0,-2.578335 1.535925,-6.872487 4.893753,-6.872487 0.984749,0 2.036374,0.47278 2.665967,1.083921 0.892509,0.885577 0.970905,2.12631 0.970905,2.815867 0,2.776679 -1.678914,7.089283 -4.923725,7.089283"
         style="fill:#807e7e;fill-opacity:1;fill-rule:evenodd;stroke:none"
         id="path2146"
         inkscape:connector-curvature="0" /><path
         d="m 48.491541,20.863193 -5.899258,0 0,-5.848531 -3.985117,0 0,5.848531 -5.869286,0 0,4.017412 5.869286,0 0,5.887738 3.985117,0 0,-5.887738 5.899258,0 0,-4.017412 z M 26.787874,32.048285 c 0,-2.834319 -1.646618,-4.273397 -3.288648,-5.532582 -0.50736,-0.493537 -1.100049,-1.044713 -1.100049,-1.891082 0,-0.846389 0.592689,-1.31915 1.023957,-1.65355 l 1.406781,-1.083921 c 1.718122,-1.418322 3.277108,-2.737471 3.277108,-5.396506 0,-3.623048 -3.558476,-7.2853038 -10.283367,-7.2853038 -5.673246,0 -8.4037852,2.6590548 -8.4037852,5.5141298 0,1.379114 0.7033812,3.346308 3.0165152,4.706969 2.416895,1.45751 5.700914,1.65355 7.465176,1.771154 -0.548892,0.689557 -1.176181,1.418322 -1.176181,2.619847 0,0.650349 0.198344,1.044713 0.396669,1.496737 -0.433553,-0.03919 -0.864821,-0.07838 -1.254558,-0.07838 -4.144252,0 -6.496575,3.051095 -6.496575,6.065306 0,1.771174 0.823309,3.761409 2.511439,5.177426 2.220874,1.812666 4.886861,2.128634 6.994719,2.128634 l 8.055561,0 -2.506831,-1.279961 -2.421522,0 c 0.897117,-0.848673 2.783591,-2.343087 2.783591,-5.278882 z m -23.5878378,10.537027 0,-29.36256 c 0,-5.5141296 4.513233,-10.0227545 10.0319708,-10.0227545 l 31.133734,0 c 5.518758,0 10.034295,4.5086249 10.034295,10.0227545 l 0,29.36256 -51.1999998,0"
         style="fill:#807e7e;fill-opacity:1;fill-rule:evenodd;stroke:none"
         id="path2148"
         inkscape:connector-curvature="0" /></g></g></svg>