<?xml version="1.0" encoding="UTF-8" standalone="no"?>
<!-- Created with Inkscape (http://www.inkscape.org/) -->

<svg
   xmlns:dc="http://purl.org/dc/elements/1.1/"
   xmlns:cc="http://creativecommons.org/ns#"
   xmlns:rdf="http://www.w3.org/1999/02/22-rdf-syntax-ns#"
   xmlns:svg="http://www.w3.org/2000/svg"
   xmlns="http://www.w3.org/2000/svg"
   xmlns:xlink="http://www.w3.org/1999/xlink"
   xmlns:sodipodi="http://sodipodi.sourceforge.net/DTD/sodipodi-0.dtd"
   xmlns:inkscape="http://www.inkscape.org/namespaces/inkscape"
   version="1.1"
   width="48"
   height="48"
   id="svg4362"
   inkscape:version="0.48.3.1 r9886"
   sodipodi:docname="icon.svg">
  <sodipodi:namedview
     pagecolor="#ffffff"
     bordercolor="#666666"
     borderopacity="1"
     objecttolerance="10"
     gridtolerance="10"
     guidetolerance="10"
     inkscape:pageopacity="0"
     inkscape:pageshadow="2"
     inkscape:window-width="1855"
     inkscape:window-height="1056"
     id="namedview2991"
     showgrid="false"
     inkscape:zoom="8.7315411"
     inkscape:cx="4.3032771"
     inkscape:cy="28.182988"
     inkscape:window-x="65"
     inkscape:window-y="24"
     inkscape:window-maximized="1"
     inkscape:current-layer="svg4362"
     fit-margin-top="0"
     fit-margin-left="0"
     fit-margin-right="0"
     fit-margin-bottom="0" />
  <defs
     id="defs4364">
    <linearGradient
       id="linearGradient4449">
      <stop
         style="stop-color:#404040;stop-opacity:1;"
         offset="0"
         id="stop4451" />
      <stop
         style="stop-color:#000000;stop-opacity:1;"
         offset="1"
         id="stop4453" />
    </linearGradient>
    <linearGradient
       id="linearGradient4397">
      <stop
         style="stop-color:#83a12b;stop-opacity:1;"
         offset="0"
         id="stop4399" />
      <stop
         style="stop-color:#b6ed17;stop-opacity:1;"
         offset="1"
         id="stop4401" />
    </linearGradient>
    <linearGradient
       inkscape:collect="always"
       id="linearGradient4361">
      <stop
         style="stop-color:#ffffff;stop-opacity:1;"
         offset="0"
         id="stop4363" />
      <stop
         style="stop-color:#ffffff;stop-opacity:0;"
         offset="1"
         id="stop4365" />
    </linearGradient>
    <linearGradient
       id="linearGradient3859">
      <stop
         style="stop-color:#fafafa;stop-opacity:1;"
         offset="0"
         id="stop3861" />
      <stop
         id="stop3991"
         offset="0.07209875"
         style="stop-color:#d5d5d5;stop-opacity:1;" />
      <stop
         id="stop3989"
         offset="0.57848388"
         style="stop-color:#b0b0b0;stop-opacity:1;" />
      <stop
         style="stop-color:#333333;stop-opacity:1;"
         offset="1"
         id="stop3863" />
    </linearGradient>
    <linearGradient
       inkscape:collect="always"
       xlink:href="#linearGradient3859"
       id="linearGradient3855"
       x1="296.68945"
       y1="460.51663"
       x2="296.68945"
       y2="499.37781"
       gradientUnits="userSpaceOnUse" />
    <linearGradient
       inkscape:collect="always"
       xlink:href="#linearGradient3859"
       id="linearGradient3857"
       x1="218.94574"
       y1="452.28128"
       x2="218.94574"
       y2="491.14246"
       gradientUnits="userSpaceOnUse" />
    <filter
       id="filter3949"
       inkscape:label="Drop shadow"
       width="1.5"
       height="1.5"
       x="-0.25"
       y="-0.25"
       color-interpolation-filters="sRGB">
      <feGaussianBlur
         id="feGaussianBlur3951"
         in="SourceAlpha"
         stdDeviation="2"
         result="blur" />
      <feColorMatrix
         id="feColorMatrix3953"
         result="bluralpha"
         type="matrix"
         values="1 0 0 0 0 0 1 0 0 0 0 0 1 0 0 0 0 0 0.5 0 " />
      <feOffset
         id="feOffset3955"
         in="bluralpha"
         dx="3"
         dy="3"
         result="offsetBlur" />
      <feMerge
         id="feMerge3957">
        <feMergeNode
           id="feMergeNode3959"
           in="offsetBlur" />
        <feMergeNode
           id="feMergeNode3961"
           in="SourceGraphic" />
      </feMerge>
    </filter>
    <filter
       id="filter3963"
       inkscape:label="Drop shadow"
       width="1.5"
       height="1.5"
       x="-0.25"
       y="-0.25"
       color-interpolation-filters="sRGB">
      <feGaussianBlur
         id="feGaussianBlur3965"
         in="SourceAlpha"
         stdDeviation="1.3551569506726457"
         result="blur" />
      <feColorMatrix
         id="feColorMatrix3967"
         result="bluralpha"
         type="matrix"
         values="1 0 0 0 0 0 1 0 0 0 0 0 1 0 0 0 0 0 0.5 0 " />
      <feOffset
         id="feOffset3969"
         in="bluralpha"
         dx="3"
         dy="3"
         result="offsetBlur" />
      <feMerge
         id="feMerge3971">
        <feMergeNode
           id="feMergeNode3973"
           in="offsetBlur" />
        <feMergeNode
           id="feMergeNode3975"
           in="SourceGraphic" />
      </feMerge>
    </filter>
    <linearGradient
       inkscape:collect="always"
       xlink:href="#linearGradient3859"
       id="linearGradient3981"
       gradientUnits="userSpaceOnUse"
       x1="296.68945"
       y1="460.51663"
       x2="296.68945"
       y2="499.37781" />
    <linearGradient
       inkscape:collect="always"
       xlink:href="#linearGradient3859"
       id="linearGradient3987"
       gradientUnits="userSpaceOnUse"
       x1="218.94574"
       y1="452.28128"
       x2="218.94574"
       y2="491.14246" />
    <filter
       id="filter4133"
       inkscape:label="Drop shadow"
       width="1.5"
       height="1.5"
       x="-0.25"
       y="-0.25"
       color-interpolation-filters="sRGB">
      <feGaussianBlur
         id="feGaussianBlur4135"
         in="SourceAlpha"
         stdDeviation="3"
         result="blur" />
      <feColorMatrix
         id="feColorMatrix4137"
         result="bluralpha"
         type="matrix"
         values="1 0 0 0 0 0 1 0 0 0 0 0 1 0 0 0 0 0 0.7 0 " />
      <feOffset
         id="feOffset4139"
         in="bluralpha"
         dx="5"
         dy="5"
         result="offsetBlur" />
      <feMerge
         id="feMerge4141">
        <feMergeNode
           id="feMergeNode4143"
           in="offsetBlur" />
        <feMergeNode
           id="feMergeNode4145"
           in="SourceGraphic" />
      </feMerge>
    </filter>
    <filter
       id="filter4147"
       inkscape:label="Drop shadow"
       width="1.5"
       height="1.5"
       x="-0.25"
       y="-0.25"
       color-interpolation-filters="sRGB">
      <feGaussianBlur
         id="feGaussianBlur4149"
         in="SourceAlpha"
         stdDeviation="3"
         result="blur" />
      <feColorMatrix
         id="feColorMatrix4151"
         result="bluralpha"
         type="matrix"
         values="1 0 0 0 0 0 1 0 0 0 0 0 1 0 0 0 0 0 0.7 0 " />
      <feOffset
         id="feOffset4153"
         in="bluralpha"
         dx="5"
         dy="5"
         result="offsetBlur" />
      <feMerge
         id="feMerge4155">
        <feMergeNode
           id="feMergeNode4157"
           in="offsetBlur" />
        <feMergeNode
           id="feMergeNode4159"
           in="SourceGraphic" />
      </feMerge>
    </filter>
    <linearGradient
       inkscape:collect="always"
       xlink:href="#linearGradient4361"
       id="linearGradient4367"
       x1="111.77867"
       y1="282.8219"
       x2="366.70993"
       y2="284.65433"
       gradientUnits="userSpaceOnUse"
       gradientTransform="translate(-0.90625,-2.6929364)" />
    <linearGradient
       inkscape:collect="always"
       xlink:href="#linearGradient4361"
       id="linearGradient4395"
       x1="452.78125"
       y1="218.13989"
       x2="658.125"
       y2="218.13989"
       gradientUnits="userSpaceOnUse"
       gradientTransform="translate(5.4973114,1.8324371)" />
    <radialGradient
       inkscape:collect="always"
       xlink:href="#linearGradient4397"
       id="radialGradient4403"
       cx="240.2373"
       cy="285.1312"
       fx="240.2373"
       fy="285.1312"
       r="133"
       gradientTransform="matrix(0.79799852,-1.0521185,1.1605513,0.88024159,-282.38109,286.90497)"
       gradientUnits="userSpaceOnUse" />
    <radialGradient
       inkscape:collect="always"
       xlink:href="#linearGradient4397"
       id="radialGradient4413"
       cx="555.98566"
       cy="265.19373"
       fx="555.98566"
       fy="265.19373"
       r="139.59587"
       gradientTransform="matrix(1,0,0,1.553359,0,-136.59251)"
       gradientUnits="userSpaceOnUse" />
    <linearGradient
       inkscape:collect="always"
       xlink:href="#linearGradient3859"
       id="linearGradient4437"
       gradientUnits="userSpaceOnUse"
       x1="218.94574"
       y1="452.28128"
       x2="218.94574"
       y2="491.14246" />
    <linearGradient
       inkscape:collect="always"
       xlink:href="#linearGradient3859"
       id="linearGradient4439"
       gradientUnits="userSpaceOnUse"
       x1="218.94574"
       y1="452.28128"
       x2="218.94574"
       y2="491.14246" />
    <linearGradient
       inkscape:collect="always"
       xlink:href="#linearGradient3859"
       id="linearGradient4445"
       gradientUnits="userSpaceOnUse"
       x1="296.68945"
       y1="460.51663"
       x2="296.68945"
       y2="499.37781" />
    <linearGradient
       inkscape:collect="always"
       xlink:href="#linearGradient3859"
       id="linearGradient4447"
       gradientUnits="userSpaceOnUse"
       x1="296.68945"
       y1="460.51663"
       x2="296.68945"
       y2="499.37781" />
    <radialGradient
       inkscape:collect="always"
       xlink:href="#linearGradient4449"
       id="radialGradient4455"
       cx="402.97162"
       cy="283.62177"
       fx="402.97162"
       fy="283.62177"
       r="411.746"
       gradientTransform="matrix(1,0,0,0.68845568,0,88.36075)"
       gradientUnits="userSpaceOnUse" />
    <radialGradient
       inkscape:collect="always"
       xlink:href="#linearGradient4449"
       id="radialGradient4611"
       gradientUnits="userSpaceOnUse"
       gradientTransform="matrix(0.97383784,0,0,0.73118394,7.570978,92.62032)"
       cx="402.97162"
       cy="283.62177"
       fx="402.97162"
       fy="283.62177"
       r="411.746" />
    <radialGradient
       inkscape:collect="always"
       xlink:href="#linearGradient4397"
       id="radialGradient4649"
       gradientUnits="userSpaceOnUse"
       gradientTransform="matrix(1,0,0,1.553359,0,-136.59251)"
       cx="555.98566"
       cy="265.19373"
       fx="555.98566"
       fy="265.19373"
       r="139.59587" />
    <radialGradient
       inkscape:collect="always"
       xlink:href="#linearGradient4397"
       id="radialGradient4651"
       gradientUnits="userSpaceOnUse"
       gradientTransform="matrix(0.79799852,-1.0521185,1.1605513,0.88024159,-282.38109,286.90497)"
       cx="240.2373"
       cy="285.1312"
       fx="240.2373"
       fy="285.1312"
       r="133" />
    <linearGradient
       inkscape:collect="always"
       xlink:href="#linearGradient3859"
       id="linearGradient4653"
       gradientUnits="userSpaceOnUse"
       x1="218.94574"
       y1="452.28128"
       x2="218.94574"
       y2="491.14246" />
    <linearGradient
       inkscape:collect="always"
       xlink:href="#linearGradient3859"
       id="linearGradient4655"
       gradientUnits="userSpaceOnUse"
       x1="218.94574"
       y1="452.28128"
       x2="218.94574"
       y2="491.14246" />
    <linearGradient
       inkscape:collect="always"
       xlink:href="#linearGradient3859"
       id="linearGradient4657"
       gradientUnits="userSpaceOnUse"
       x1="218.94574"
       y1="452.28128"
       x2="218.94574"
       y2="491.14246" />
    <linearGradient
       inkscape:collect="always"
       xlink:href="#linearGradient3859"
       id="linearGradient4659"
       gradientUnits="userSpaceOnUse"
       x1="218.94574"
       y1="452.28128"
       x2="218.94574"
       y2="491.14246" />
    <linearGradient
       inkscape:collect="always"
       xlink:href="#linearGradient3859"
       id="linearGradient4661"
       gradientUnits="userSpaceOnUse"
       x1="218.94574"
       y1="452.28128"
       x2="218.94574"
       y2="491.14246" />
    <linearGradient
       inkscape:collect="always"
       xlink:href="#linearGradient3859"
       id="linearGradient4663"
       gradientUnits="userSpaceOnUse"
       x1="218.94574"
       y1="452.28128"
       x2="218.94574"
       y2="491.14246" />
    <linearGradient
       inkscape:collect="always"
       xlink:href="#linearGradient3859"
       id="linearGradient4665"
       gradientUnits="userSpaceOnUse"
       x1="218.94574"
       y1="452.28128"
       x2="218.94574"
       y2="491.14246" />
    <linearGradient
       inkscape:collect="always"
       xlink:href="#linearGradient3859"
       id="linearGradient4667"
       gradientUnits="userSpaceOnUse"
       x1="218.94574"
       y1="452.28128"
       x2="218.94574"
       y2="491.14246" />
    <linearGradient
       inkscape:collect="always"
       xlink:href="#linearGradient3859"
       id="linearGradient4669"
       gradientUnits="userSpaceOnUse"
       x1="296.68945"
       y1="460.51663"
       x2="296.68945"
       y2="499.37781" />
    <linearGradient
       inkscape:collect="always"
       xlink:href="#linearGradient3859"
       id="linearGradient4671"
       gradientUnits="userSpaceOnUse"
       x1="296.68945"
       y1="460.51663"
       x2="296.68945"
       y2="499.37781" />
    <linearGradient
       inkscape:collect="always"
       xlink:href="#linearGradient3859"
       id="linearGradient4673"
       gradientUnits="userSpaceOnUse"
       x1="296.68945"
       y1="460.51663"
       x2="296.68945"
       y2="499.37781" />
    <linearGradient
       inkscape:collect="always"
       xlink:href="#linearGradient3859"
       id="linearGradient4675"
       gradientUnits="userSpaceOnUse"
       x1="296.68945"
       y1="460.51663"
       x2="296.68945"
       y2="499.37781" />
    <linearGradient
       inkscape:collect="always"
       xlink:href="#linearGradient3859"
       id="linearGradient4677"
       gradientUnits="userSpaceOnUse"
       x1="296.68945"
       y1="460.51663"
       x2="296.68945"
       y2="499.37781" />
    <linearGradient
       inkscape:collect="always"
       xlink:href="#linearGradient3859"
       id="linearGradient4679"
       gradientUnits="userSpaceOnUse"
       x1="296.68945"
       y1="460.51663"
       x2="296.68945"
       y2="499.37781" />
    <linearGradient
       inkscape:collect="always"
       xlink:href="#linearGradient3859"
       id="linearGradient4681"
       gradientUnits="userSpaceOnUse"
       x1="296.68945"
       y1="460.51663"
       x2="296.68945"
       y2="499.37781" />
    <linearGradient
       inkscape:collect="always"
       xlink:href="#linearGradient4361"
       id="linearGradient4683"
       gradientUnits="userSpaceOnUse"
       gradientTransform="translate(-0.90625,-2.6929364)"
       x1="111.77867"
       y1="282.8219"
       x2="366.70993"
       y2="284.65433" />
    <linearGradient
       inkscape:collect="always"
       xlink:href="#linearGradient4361"
       id="linearGradient4685"
       gradientUnits="userSpaceOnUse"
       gradientTransform="translate(5.4973114,1.8324371)"
       x1="452.78125"
       y1="218.13989"
       x2="658.125"
       y2="218.13989" />
    <linearGradient
       inkscape:collect="always"
       xlink:href="#linearGradient3859"
       id="linearGradient4687"
       gradientUnits="userSpaceOnUse"
       x1="218.94574"
       y1="452.28128"
       x2="218.94574"
       y2="491.14246" />
    <linearGradient
       inkscape:collect="always"
       xlink:href="#linearGradient3859"
       id="linearGradient4689"
       gradientUnits="userSpaceOnUse"
       x1="218.94574"
       y1="452.28128"
       x2="218.94574"
       y2="491.14246" />
    <linearGradient
       inkscape:collect="always"
       xlink:href="#linearGradient3859"
       id="linearGradient4691"
       gradientUnits="userSpaceOnUse"
       x1="218.94574"
       y1="452.28128"
       x2="218.94574"
       y2="491.14246" />
    <linearGradient
       inkscape:collect="always"
       xlink:href="#linearGradient3859"
       id="linearGradient4693"
       gradientUnits="userSpaceOnUse"
       x1="218.94574"
       y1="452.28128"
       x2="218.94574"
       y2="491.14246" />
    <linearGradient
       inkscape:collect="always"
       xlink:href="#linearGradient3859"
       id="linearGradient4695"
       gradientUnits="userSpaceOnUse"
       x1="218.94574"
       y1="452.28128"
       x2="218.94574"
       y2="491.14246" />
    <linearGradient
       inkscape:collect="always"
       xlink:href="#linearGradient3859"
       id="linearGradient4697"
       gradientUnits="userSpaceOnUse"
       x1="218.94574"
       y1="452.28128"
       x2="218.94574"
       y2="491.14246" />
    <linearGradient
       inkscape:collect="always"
       xlink:href="#linearGradient3859"
       id="linearGradient4699"
       gradientUnits="userSpaceOnUse"
       x1="218.94574"
       y1="452.28128"
       x2="218.94574"
       y2="491.14246" />
    <linearGradient
       inkscape:collect="always"
       xlink:href="#linearGradient3859"
       id="linearGradient4701"
       gradientUnits="userSpaceOnUse"
       x1="218.94574"
       y1="452.28128"
       x2="218.94574"
       y2="491.14246" />
    <linearGradient
       inkscape:collect="always"
       xlink:href="#linearGradient3859"
       id="linearGradient4703"
       gradientUnits="userSpaceOnUse"
       x1="296.68945"
       y1="460.51663"
       x2="296.68945"
       y2="499.37781" />
    <linearGradient
       inkscape:collect="always"
       xlink:href="#linearGradient3859"
       id="linearGradient4705"
       gradientUnits="userSpaceOnUse"
       x1="296.68945"
       y1="460.51663"
       x2="296.68945"
       y2="499.37781" />
    <linearGradient
       inkscape:collect="always"
       xlink:href="#linearGradient3859"
       id="linearGradient4707"
       gradientUnits="userSpaceOnUse"
       x1="296.68945"
       y1="460.51663"
       x2="296.68945"
       y2="499.37781" />
    <linearGradient
       inkscape:collect="always"
       xlink:href="#linearGradient3859"
       id="linearGradient4709"
       gradientUnits="userSpaceOnUse"
       x1="296.68945"
       y1="460.51663"
       x2="296.68945"
       y2="499.37781" />
    <linearGradient
       inkscape:collect="always"
       xlink:href="#linearGradient3859"
       id="linearGradient4711"
       gradientUnits="userSpaceOnUse"
       x1="296.68945"
       y1="460.51663"
       x2="296.68945"
       y2="499.37781" />
    <linearGradient
       inkscape:collect="always"
       xlink:href="#linearGradient3859"
       id="linearGradient4713"
       gradientUnits="userSpaceOnUse"
       x1="296.68945"
       y1="460.51663"
       x2="296.68945"
       y2="499.37781" />
    <linearGradient
       inkscape:collect="always"
       xlink:href="#linearGradient3859"
       id="linearGradient4715"
       gradientUnits="userSpaceOnUse"
       x1="296.68945"
       y1="460.51663"
       x2="296.68945"
       y2="499.37781" />
    <linearGradient
       inkscape:collect="always"
       xlink:href="#linearGradient4361"
       id="linearGradient3123"
       gradientUnits="userSpaceOnUse"
       gradientTransform="translate(-5.2902816,20.247393)"
       x1="452.78125"
       y1="218.13989"
       x2="658.125"
       y2="218.13989" />
    <linearGradient
       inkscape:collect="always"
       xlink:href="#linearGradient4361"
       id="linearGradient3126"
       gradientUnits="userSpaceOnUse"
       gradientTransform="translate(-11.693843,15.72202)"
       x1="111.77867"
       y1="282.8219"
       x2="366.70993"
       y2="284.65433" />
    <radialGradient
       inkscape:collect="always"
       xlink:href="#linearGradient4397"
       id="radialGradient3144"
       gradientUnits="userSpaceOnUse"
       gradientTransform="matrix(0.79799852,-1.0521185,1.1605513,0.88024159,-293.16868,305.31993)"
       cx="240.2373"
       cy="285.1312"
       fx="240.2373"
       fy="285.1312"
       r="133" />
    <radialGradient
       inkscape:collect="always"
       xlink:href="#linearGradient4397"
       id="radialGradient3147"
       gradientUnits="userSpaceOnUse"
       gradientTransform="matrix(1,0,0,1.553359,-10.787593,-118.17755)"
       cx="555.98566"
       cy="265.19373"
       fx="555.98566"
       fy="265.19373"
       r="139.59587" />
    <radialGradient
       inkscape:collect="always"
       xlink:href="#linearGradient4397"
       id="radialGradient3153"
       gradientUnits="userSpaceOnUse"
       gradientTransform="matrix(0.79799852,-1.0521185,1.1605513,0.88024159,-293.16868,305.31993)"
       cx="240.2373"
       cy="285.1312"
       fx="240.2373"
       fy="285.1312"
       r="133" />
    <linearGradient
       inkscape:collect="always"
       xlink:href="#linearGradient4361"
       id="linearGradient3155"
       gradientUnits="userSpaceOnUse"
       gradientTransform="translate(-11.693843,15.72202)"
       x1="111.77867"
       y1="282.8219"
       x2="366.70993"
       y2="284.65433" />
    <radialGradient
       inkscape:collect="always"
       xlink:href="#linearGradient4397"
       id="radialGradient3090"
       gradientUnits="userSpaceOnUse"
       gradientTransform="matrix(0.79799852,-1.0521185,1.1605513,0.88024159,-293.16868,305.31993)"
       cx="240.2373"
       cy="285.1312"
       fx="240.2373"
       fy="285.1312"
       r="133" />
    <linearGradient
       inkscape:collect="always"
       xlink:href="#linearGradient4361"
       id="linearGradient3092"
       gradientUnits="userSpaceOnUse"
       gradientTransform="translate(-11.693843,15.72202)"
       x1="111.77867"
       y1="282.8219"
       x2="366.70993"
       y2="284.65433" />
    <linearGradient
       inkscape:collect="always"
       xlink:href="#linearGradient4361"
       id="linearGradient3095"
       gradientUnits="userSpaceOnUse"
       gradientTransform="matrix(0.14693704,0,0,0.14693704,-11.838863,-18.8922)"
       x1="111.77867"
       y1="282.8219"
       x2="366.70993"
       y2="284.65433" />
    <radialGradient
       inkscape:collect="always"
       xlink:href="#linearGradient4397"
       id="radialGradient3098"
       gradientUnits="userSpaceOnUse"
       gradientTransform="matrix(0.11725554,-0.15459518,0.17052797,0.12934009,-52.791999,24.260638)"
       cx="240.2373"
       cy="285.1312"
       fx="240.2373"
       fy="285.1312"
       r="133" />
  </defs>
  <metadata
     id="metadata4367">
    <rdf:RDF>
      <cc:Work
         rdf:about="">
        <dc:format>image/svg+xml</dc:format>
        <dc:type
           rdf:resource="http://purl.org/dc/dcmitype/StillImage" />
        <dc:title />
      </cc:Work>
    </rdf:RDF>
  </metadata>
  <g
     id="g3100">
    <path
       d="m 16.024081,0.86892369 c -0.01948,-4.4082e-4 -0.04022,0.002101 -0.0597,0.004584 -0.05196,0.006686 -0.103209,0.0226136 -0.151522,0.0505096 C 15.619593,1.0356002 15.555793,1.2842765 15.665922,1.4750316 l 2.061703,3.567815 C 14.024606,7.1071137 11.445053,10.937342 11.143009,15.392724 l 7.333084,0 11.047829,0 7.333069,0 C 36.554889,10.936239 33.976276,7.1056061 30.272375,5.0428466 l 2.061718,-3.567815 c 0.110129,-0.1907551 0.04173,-0.4394314 -0.151536,-0.55101387 -0.07247,-0.0418433 -0.152227,-0.0555055 -0.229589,-0.0505096 -0.128908,0.008331 -0.248001,0.0782249 -0.316826,0.19744667 L 29.556057,4.6709122 C 27.873834,3.8679645 25.989719,3.4173556 24,3.4173556 c -0.106588,0 -0.210854,-0.00257 -0.316825,0 -1.87261,0.045342 -3.646596,0.4928562 -5.239232,1.2535566 L 16.363873,1.0709548 C 16.291595,0.94577176 16.160454,0.87167288 16.024081,0.86891634 z m 2.245375,7.61776721 c 0.608642,0 1.102027,0.493394 1.102027,1.1020278 0,0.6086333 -0.493385,1.1020273 -1.102027,1.1020273 -0.608628,0 -1.102028,-0.493394 -1.102028,-1.1020273 0,-0.6086338 0.4934,-1.1020278 1.102028,-1.1020278 z m 11.608026,0 c 0.608642,0 1.102028,0.493394 1.102028,1.1020278 0,0.6086333 -0.493386,1.1020273 -1.102028,1.1020273 -0.608628,0 -1.102028,-0.493394 -1.102028,-1.1020273 0,-0.6086338 0.4934,-1.1020278 1.102028,-1.1020278 z M 7.2491774,15.98048 c -1.5418692,0 -2.7918042,1.249933 -2.7918042,2.79181 l 0,3.379551 0,5.142797 0,3.379552 c 0,1.541869 1.249935,2.791804 2.7918042,2.791804 1.5418838,0 2.7918036,-1.249935 2.7918036,-2.791804 l 0,-3.379552 0,-5.142797 0,-3.379551 c 0,-1.541877 -1.2499197,-2.79181 -2.7918035,-2.79181 z m 33.5016456,0 c -1.541869,0 -2.791804,1.249933 -2.791804,2.79181 l 0,3.379551 0,5.142797 0,3.379552 c 0,1.541869 1.249935,2.791804 2.791804,2.791804 1.541884,0 2.791804,-1.249935 2.791804,-2.791804 l 0,-3.379552 0,-5.142797 0,-3.379551 c 0,-1.541877 -1.24992,-2.79181 -2.791804,-2.79181 z m -29.607814,0.440811 0,18.66101 c 0,1.537226 1.256341,2.784295 2.791804,2.791804 0.0047,1.4e-5 0.01381,0 0.01381,0 l 2.631084,0 0,6.465229 c 0,1.54187 1.249935,2.791804 2.791804,2.791804 1.541884,0 2.791804,-1.249934 2.791804,-2.791804 l 0,-6.465229 3.9673,0 0,6.465229 c 0,1.54187 1.249934,2.791804 2.791803,2.791804 1.541884,0 2.791804,-1.249934 2.791804,-2.791804 l 0,-6.465229 2.337225,0 c 0,0 0.0091,1.4e-5 0.01381,0 1.535463,-0.0075 2.791804,-1.254578 2.791804,-2.791804 l 0,-18.66101 -7.346852,0 -11.020278,0 -7.346852,0 z"
       id="path3826"
       style="color:#000000;fill:url(#radialGradient3098);fill-opacity:1;fill-rule:nonzero;stroke:none;stroke-width:1.5;marker:none;visibility:visible;display:inline;overflow:visible;enable-background:accumulate"
       inkscape:connector-curvature="0" />
    <path
       inkscape:connector-curvature="0"
       id="path4355"
       d="m 16.024074,0.9488937 c -0.01948,-4.408e-4 -0.04021,0.00212 -0.05969,0.00458 -0.05196,0.00669 -0.103216,0.022614 -0.151529,0.05051 -0.193266,0.1115825 -0.257066,0.3602587 -0.146937,0.5510139 l 2.06171,3.567815 C 14.024606,7.1870837 11.445053,11.017312 11.143009,15.472694 l 7.333077,0 11.047829,0 7.333076,0 C 36.554889,11.016209 33.976276,7.1855762 30.272375,5.1228167 l 2.06171,-3.5678077 c 0.11013,-0.1907551 0.04174,-0.4394314 -0.151528,-0.5510139 -0.07247,-0.041843 -0.152227,-0.055505 -0.22959,-0.05051 -0.128907,0.00833 -0.248007,0.078225 -0.316833,0.1974467 L 29.556057,4.7508896 C 27.873834,3.9479419 25.989719,3.497333 24,3.497333 c -0.106588,0 -0.210862,-0.00257 -0.316833,0 -1.87261,0.045342 -3.646588,0.4928562 -5.239224,1.2535566 L 16.363866,1.1509322 c -0.07228,-0.125183 -0.20342,-0.1992819 -0.339792,-0.2020385 z m 2.245382,7.6177672 c 0.608642,0 1.102027,0.493394 1.102027,1.1020281 0,0.608633 -0.493385,1.102028 -1.102027,1.102028 -0.608628,0 -1.102028,-0.493395 -1.102028,-1.102028 0,-0.6086341 0.4934,-1.1020281 1.102028,-1.1020281 z m 11.608026,0 c 0.608642,0 1.102028,0.493394 1.102028,1.1020281 0,0.608633 -0.493386,1.102028 -1.102028,1.102028 -0.608628,0 -1.102028,-0.493395 -1.102028,-1.102028 0,-0.6086341 0.4934,-1.1020281 1.102028,-1.1020281 z M 7.2491779,16.06045 c -1.5418691,0 -2.7918042,1.249927 -2.7918042,2.791804 l 0,3.379552 0,5.142796 0,2.571398 c 1.862207,-0.676489 3.7214014,-1.321318 5.5836073,-1.923957 l 0,-0.647441 0,-5.142796 0,-3.379552 c 0,-1.541877 -1.2499193,-2.791804 -2.7918031,-2.791804 z m 33.5016451,0 c -1.541869,0 -2.791804,1.249927 -2.791804,2.791804 l 0,2.934149 c 1.861974,-0.228233 3.721633,-0.421723 5.583607,-0.573973 l 0,-2.360176 c 0,-1.541877 -1.249919,-2.791804 -2.791803,-2.791804 z m -29.607814,0.440811 0,11.171807 C 19.713078,24.9669 28.286922,23.043456 36.856991,21.924156 l 0,-5.422895 -7.346852,0 -11.020278,0 -7.346852,0 z"
       style="opacity:0.36538463;color:#000000;fill:url(#linearGradient3095);fill-opacity:1;fill-rule:nonzero;stroke:none;stroke-width:1.5;marker:none;visibility:visible;display:inline;overflow:visible;enable-background:accumulate" />
  </g>
</svg>
