<?xml version="1.0" encoding="UTF-8" standalone="no"?>
<!-- Created with Inkscape (http://www.inkscape.org/) -->

<svg
   xmlns:dc="http://purl.org/dc/elements/1.1/"
   xmlns:cc="http://creativecommons.org/ns#"
   xmlns:rdf="http://www.w3.org/1999/02/22-rdf-syntax-ns#"
   xmlns:svg="http://www.w3.org/2000/svg"
   xmlns="http://www.w3.org/2000/svg"
   xmlns:sodipodi="http://sodipodi.sourceforge.net/DTD/sodipodi-0.dtd"
   xmlns:inkscape="http://www.inkscape.org/namespaces/inkscape"
   id="svg2"
   version="1.1"
   inkscape:version="0.48.3.1 r9886"
   width="60"
   height="60"
   xml:space="preserve"
   sodipodi:docname="date_picker.svg"><metadata
     id="metadata8"><rdf:RDF><cc:Work
         rdf:about=""><dc:format>image/svg+xml</dc:format><dc:type
           rdf:resource="http://purl.org/dc/dcmitype/StillImage" /><dc:title></dc:title></cc:Work></rdf:RDF></metadata><defs
     id="defs6"><clipPath
       clipPathUnits="userSpaceOnUse"
       id="clipPath18"><path
         d="M 0,13508.7 0,0 l 14670,0 0,13508.7 -14670,0 z"
         id="path20"
         inkscape:connector-curvature="0" /></clipPath></defs><sodipodi:namedview
     pagecolor="#ffffff"
     bordercolor="#666666"
     borderopacity="1"
     objecttolerance="10"
     gridtolerance="10"
     guidetolerance="10"
     inkscape:pageopacity="0"
     inkscape:pageshadow="2"
     inkscape:window-width="1855"
     inkscape:window-height="1056"
     id="namedview4"
     showgrid="false"
     inkscape:zoom="3.8189633"
     inkscape:cx="12.610303"
     inkscape:cy="42.311181"
     inkscape:window-x="65"
     inkscape:window-y="24"
     inkscape:window-maximized="1"
     inkscape:current-layer="g10" /><g
     id="g10"
     inkscape:groupmode="layer"
     inkscape:label="ink_ext_XXXXXX"
     transform="matrix(1.25,0,0,-1.25,0,60)"><g
       id="g5577"
       transform="matrix(0.91909313,0,0,0.91909313,0.02492217,6.8589131)"><path
         id="path2696"
         transform="matrix(0.8,0,0,-0.8,0,48)"
         d="m 11.5,10.40625 c -3.3522504,0 -6.09375,2.726838 -6.09375,6.09375 l 0,20.3125 c 0,3.366912 2.7414996,6.09375 6.09375,6.09375 l 15.8125,0 0,-6.34375 c 0,-3.366912 2.71025,-6.09375 6.0625,-6.09375 l 4.5625,0 0,-13.96875 c 0,-3.366912 -2.758,-6.09375 -6.125,-6.09375 l -20.3125,0 z m 9.625,8.8125 2.28125,0 c 0.17575,0 0.3125,0.139763 0.3125,0.3125 l 0,14.625 c 0,0.172725 -0.13675,0.3125 -0.3125,0.3125 l -2.6875,0 c -0.161,0 -0.28125,-0.139775 -0.28125,-0.3125 l 0,-11.65625 -2.28125,1.15625 c -0.0875,0.041 -0.1935,0.03888 -0.28125,0 -0.0875,-0.0425 -0.1415,-0.125063 -0.15625,-0.21875 l -0.5,-2.09375 C 17.19,21.203225 17.274375,21.06295 17.40625,21 l 3.5625,-1.75 c 0.04375,-0.0205 0.112375,-0.03125 0.15625,-0.03125 z m 12.25,13.75 c -1.97625,0 -3.5625,1.611675 -3.5625,3.59375 l 0,6.34375 2,0 c 3.367,0 6.125,-2.726838 6.125,-6.09375 l 0,-3.84375 -4.5625,0 z"
         style="fill:#807e7e;fill-opacity:1;fill-rule:nonzero;stroke:none"
         inkscape:connector-curvature="0" /><path
         inkscape:connector-curvature="0"
         id="path5570"
         d="m 30.346161,23.625 0,-2 12.625,0 c 1.5926,0 2.875,-1.28934 2.875,-2.875 l 0,-16.25 c 0,-1.58450003 -1.2824,-2.87500002 -2.875,-2.87500002 l -16.275,0 c -1.581,0 -2.85,1.29049999 -2.85,2.87500002 l 0,11.175 -2,0 0,-11.175 c 0,-2.69236003 2.1682,-4.875 4.85,-4.875 l 16.275,0 c 2.6935,0 4.875,2.18263997 4.875,4.875 l 0,16.25 c 0,2.693531 -2.1815,4.875 -4.875,4.875 l -12.625,0 z m 3.975,-6.85 c -1.209477,-0.09882 -2.354025,-0.549098 -3.225,-1.25 -0.082,-0.0703 -0.1351,-0.198109 -0.1,-0.3 l 0.675,-1.55 c 0.024,-0.0714 0.08,-0.130089 0.15,-0.15 0.07,-0.0199 0.1664,0.0038 0.225,0.05 0.8198,0.620691 1.5771,0.9 2.35,0.9 1.5927,0 1.825,-1.064089 1.825,-1.7 -0.012,-1.41586 -1.1644,-2.727501 -3.975,-5.325 l -1.375,-1.275 c -0.059,-0.048 -0.1,-0.12974 -0.1,-0.2 l 0,-1.35 c 0,-0.13819 0.1095,-0.25 0.25,-0.25 l 7.925,0 c 0.1405,0 0.25,0.11181 0.25,0.25 l 0,1.85 c 0,0.13819 -0.1095,0.25 -0.25,0.25 l -4.175,0 0.575,0.475 c 2.2836,2.1056402 3.6,3.743551 3.6,5.8 0,1.7508 -1.0785,3.775 -4.1,3.775 -0.1742,0 -0.352217,0.01412 -0.525,0 z"
         style="fill:#807e7e;fill-opacity:1;fill-rule:nonzero;stroke:none" /></g></g></svg>