<?xml version="1.0" encoding="UTF-8" standalone="no"?>
<!-- Created with Inkscape (http://www.inkscape.org/) -->

<svg
   xmlns:dc="http://purl.org/dc/elements/1.1/"
   xmlns:cc="http://creativecommons.org/ns#"
   xmlns:rdf="http://www.w3.org/1999/02/22-rdf-syntax-ns#"
   xmlns:svg="http://www.w3.org/2000/svg"
   xmlns="http://www.w3.org/2000/svg"
   xmlns:sodipodi="http://sodipodi.sourceforge.net/DTD/sodipodi-0.dtd"
   xmlns:inkscape="http://www.inkscape.org/namespaces/inkscape"
   id="svg2"
   version="1.1"
   inkscape:version="0.48.3.1 r9886"
   width="60"
   height="60"
   xml:space="preserve"
   sodipodi:docname="popup_window.svg"><metadata
     id="metadata8"><rdf:RDF><cc:Work
         rdf:about=""><dc:format>image/svg+xml</dc:format><dc:type
           rdf:resource="http://purl.org/dc/dcmitype/StillImage" /><dc:title /></cc:Work></rdf:RDF></metadata><defs
     id="defs6"><clipPath
       clipPathUnits="userSpaceOnUse"
       id="clipPath18"><path
         d="M 0,13508.7 0,0 l 14670,0 0,13508.7 -14670,0 z"
         id="path20"
         inkscape:connector-curvature="0" /></clipPath></defs><sodipodi:namedview
     pagecolor="#ffffff"
     bordercolor="#666666"
     borderopacity="1"
     objecttolerance="10"
     gridtolerance="10"
     guidetolerance="10"
     inkscape:pageopacity="0"
     inkscape:pageshadow="2"
     inkscape:window-width="1855"
     inkscape:window-height="1056"
     id="namedview4"
     showgrid="false"
     inkscape:zoom="7.6379267"
     inkscape:cx="5.5991743"
     inkscape:cy="26.519942"
     inkscape:window-x="65"
     inkscape:window-y="24"
     inkscape:window-maximized="1"
     inkscape:current-layer="g10" /><g
     id="g10"
     inkscape:groupmode="layer"
     inkscape:label="ink_ext_XXXXXX"
     transform="matrix(1.25,0,0,-1.25,0,60)"><path
       style="fill:#807e7e;fill-opacity:1;fill-rule:nonzero;stroke:none"
       d="M 30,5 C 16.191935,5 5,16.194475 5,30 5,43.805525 16.191935,55 30,55 43.805589,55 55,43.805525 55,30 55,16.194475 43.805589,5 30,5 z m 0.105601,10.0577 c 1.885852,0 3.40625,1.238735 3.40625,2.78125 l 0,12.09375 c 0,1.542515 -1.520398,2.78125 -3.40625,2.78125 -1.885852,0 -3.40625,-1.238735 -3.40625,-2.78125 l 0,-12.09375 c 0,-1.542515 1.520398,-2.78125 3.40625,-2.78125 z m 0.03125,20.375 c 1.053393,0 1.93898,0.33727 2.6875,1.03125 0.746045,0.718742 1.125,1.570949 1.125,2.5625 0,0.966576 -0.378955,1.80602 -1.125,2.5 -0.74852,0.69398 -1.634108,1.0625 -2.6875,1.0625 -1.050896,0 -1.965255,-0.36852 -2.71875,-1.0625 -0.74852,-0.69398 -1.125,-1.533424 -1.125,-2.5 0,-0.991551 0.37648,-1.843757 1.125,-2.5625 0.753495,-0.69398 1.667854,-1.03125 2.71875,-1.03125 z"
       transform="matrix(0.8,0,0,-0.8,0,48)"
       id="path378"
       inkscape:connector-curvature="0"
       sodipodi:nodetypes="ssssssssssssscscscscs" /></g></svg>