<?xml version="1.0" encoding="UTF-8" standalone="no"?>
<!-- Generator: Adobe Illustrator 15.1.0, SVG Export Plug-In . SVG Version: 6.00 Build 0)  -->

<svg
   xmlns:dc="http://purl.org/dc/elements/1.1/"
   xmlns:cc="http://creativecommons.org/ns#"
   xmlns:rdf="http://www.w3.org/1999/02/22-rdf-syntax-ns#"
   xmlns:svg="http://www.w3.org/2000/svg"
   xmlns="http://www.w3.org/2000/svg"
   xmlns:sodipodi="http://sodipodi.sourceforge.net/DTD/sodipodi-0.dtd"
   xmlns:inkscape="http://www.inkscape.org/namespaces/inkscape"
   version="1.1"
   x="0px"
   y="0px"
   width="48"
   height="48"
   viewBox="0 0 48 48"
   xml:space="preserve"
   id="svg2"
   inkscape:version="0.48.4 r9939"
   sodipodi:docname="aperture.svg"><metadata
   id="metadata24"><rdf:RDF><cc:Work
       rdf:about=""><dc:format>image/svg+xml</dc:format><dc:type
         rdf:resource="http://purl.org/dc/dcmitype/StillImage" /><dc:title></dc:title></cc:Work></rdf:RDF></metadata><defs
   id="defs22" /><sodipodi:namedview
   pagecolor="#ffffff"
   bordercolor="#666666"
   borderopacity="1"
   objecttolerance="10"
   gridtolerance="10"
   guidetolerance="10"
   inkscape:pageopacity="0"
   inkscape:pageshadow="2"
   inkscape:window-width="1920"
   inkscape:window-height="1052"
   id="namedview20"
   showgrid="false"
   inkscape:zoom="7.375"
   inkscape:cx="9.3559322"
   inkscape:cy="16"
   inkscape:window-x="0"
   inkscape:window-y="-3"
   inkscape:window-maximized="1"
   inkscape:current-layer="svg2" />
<g
   id="Layer_1"
   transform="translate(0,16)"
   style="fill:#0099cc;fill-opacity:1;fill-rule:nonzero">
</g>
<g
   id="aperture"
   transform="matrix(1.25,0,0,1.25,4,4)"
   style="fill:#0099cc;fill-opacity:1;fill-rule:nonzero">
	<g
   id="g6"
   style="fill:#0099cc;fill-opacity:1;fill-rule:nonzero">
		<path
   style="fill:#0099cc;fill-opacity:1;fill-rule:nonzero"
   d="M 21.172,13.98 26.863,4.316 C 24.008,1.658 20.211,0 16,0 15.002,0 14.035,0.119 13.088,0.293 l 8.084,13.687 z"
   id="path8"
   inkscape:connector-curvature="0" />
		<path
   style="fill:#0099cc;fill-opacity:1;fill-rule:nonzero"
   d="M 19.951,20 H 31.433 C 31.766,18.715 32,17.391 32,16 32,12.127 30.57,8.623 28.277,5.855 L 19.951,20 z"
   id="path10"
   inkscape:connector-curvature="0" />
		<path
   style="fill:#0099cc;fill-opacity:1;fill-rule:nonzero"
   d="M 16.5,10 11.092,0.848 C 6.592,2.307 2.953,5.646 1.188,10 H 16.5 z"
   id="path12"
   inkscape:connector-curvature="0" />
		<path
   style="fill:#0099cc;fill-opacity:1;fill-rule:nonzero"
   d="m 15.633,22 5.391,9.117 C 25.473,29.633 29.063,26.316 30.813,22 h -15.18 z"
   id="path14"
   inkscape:connector-curvature="0" />
		<path
   style="fill:#0099cc;fill-opacity:1;fill-rule:nonzero"
   d="M 12.105,12 H 0.566 C 0.232,13.285 0,14.609 0,16 0,19.891 1.445,23.41 3.756,26.188 L 12.105,12 z"
   id="path16"
   inkscape:connector-curvature="0" />
		<path
   style="fill:#0099cc;fill-opacity:1;fill-rule:nonzero"
   d="M 10.918,17.961 5.174,27.719 C 8.027,30.352 11.809,32 16,32 c 1.041,0 2.055,-0.117 3.041,-0.305 L 10.918,17.961 z"
   id="path18"
   inkscape:connector-curvature="0" />
	</g>
</g>
</svg>