<?xml version="1.0" encoding="UTF-8" standalone="no"?>
<!-- Created with Inkscape (http://www.inkscape.org/) -->

<svg
   xmlns:dc="http://purl.org/dc/elements/1.1/"
   xmlns:cc="http://creativecommons.org/ns#"
   xmlns:rdf="http://www.w3.org/1999/02/22-rdf-syntax-ns#"
   xmlns:svg="http://www.w3.org/2000/svg"
   xmlns="http://www.w3.org/2000/svg"
   xmlns:sodipodi="http://sodipodi.sourceforge.net/DTD/sodipodi-0.dtd"
   xmlns:inkscape="http://www.inkscape.org/namespaces/inkscape"
   id="svg2"
   version="1.1"
   inkscape:version="0.48.3.1 r9886"
   width="48"
   height="48"
   xml:space="preserve"
   sodipodi:docname="gplus.svg"><metadata
     id="metadata8"><rdf:RDF><cc:Work
         rdf:about=""><dc:format>image/svg+xml</dc:format><dc:type
           rdf:resource="http://purl.org/dc/dcmitype/StillImage" /><dc:title></dc:title></cc:Work></rdf:RDF></metadata><defs
     id="defs6"><clipPath
       clipPathUnits="userSpaceOnUse"
       id="clipPath18"><path
         d="M 0,13508.7 0,0 l 14670,0 0,13508.7 -14670,0 z"
         id="path20"
         inkscape:connector-curvature="0" /></clipPath></defs><sodipodi:namedview
     pagecolor="#ffffff"
     bordercolor="#666666"
     borderopacity="1"
     objecttolerance="10"
     gridtolerance="10"
     guidetolerance="10"
     inkscape:pageopacity="0"
     inkscape:pageshadow="2"
     inkscape:window-width="1855"
     inkscape:window-height="1056"
     id="namedview4"
     showgrid="false"
     inkscape:zoom="7.6379267"
     inkscape:cx="14.523853"
     inkscape:cy="6.1479313"
     inkscape:window-x="65"
     inkscape:window-y="24"
     inkscape:window-maximized="1"
     inkscape:current-layer="g10" /><g
     id="g10"
     inkscape:groupmode="layer"
     inkscape:label="ink_ext_XXXXXX"
     transform="matrix(1.25,0,0,-1.25,0,48)"><g
       id="g5575"
       transform="matrix(1.5288239,0,0,1.5288239,-10.153411,-10.153419)"><path
         d="m 19.17657,17.1272 c -1.14768,0 -2.0787,0.9251 -2.0787,2.0728 0,1.1477 0.93102,2.0846 2.0787,2.0846 1.14651,0 2.07636,-0.9369 2.07636,-2.0846 0,-1.1477 -0.92985,-2.0728 -2.07636,-2.0728 z m 0.0234,7.0032 c -2.71695,0 -4.93033,-2.2134 -4.93033,-4.9304 0,-2.7169 2.21338,-4.9303 4.93033,-4.9303 2.71696,0 4.92916,2.2134 4.92916,4.9303 0,2.717 -2.2122,4.9304 -4.92916,4.9304"
         style="fill:#807e7e;fill-opacity:1;fill-rule:nonzero;stroke:none"
         id="path318"
         inkscape:connector-curvature="0" /><path
         d="m 19.19999,12.677 c -3.60347,0 -6.52537,2.916 -6.52537,6.523 0,3.607 2.9219,6.523 6.52537,6.523 3.60348,0 6.52537,-2.916 6.52537,-6.523 0,-3.607 -2.92189,-6.523 -6.52537,-6.523 z m 12.0354,5.0474 0,3.0098 -3.58123,0.5855 c -0.21196,0.8432 -0.54456,1.6396 -0.98372,2.3656 l 2.0869,2.9863 -2.12789,2.1197 -2.93595,-2.1079 c -0.7331,0.445 -1.53531,0.7729 -2.38904,0.9954 l -0.6242,3.5601 -3.00855,0 -0.58087,-3.5484 c -0.8549,-0.2108 -1.66062,-0.5504 -2.3949,-0.9837 l -2.92775,2.0845 -2.12789,-2.1197 2.05997,-2.9511 c -0.44502,-0.7378 -0.78464,-1.5459 -1.00012,-2.4008 l -3.53555,-0.5855 0,-3.0098 3.53321,-0.6324 c 0.21197,-0.8549 0.55159,-1.6629 0.99778,-2.4007 L 9.60868,11.7752 11.7354,9.6438 14.68423,11.705 c 0.73662,-0.4333 1.54,-0.7729 2.3949,-0.9837 l 0.59258,-3.5602 3.00855,0 0.6324,3.5719 c 0.85022,0.2108 1.65242,0.5504 2.38319,0.9954 l 2.96874,-2.0846 2.12671,2.1314 -2.11852,2.9395 c 0.43799,0.7378 0.77176,1.5341 0.98138,2.3773 l 3.58123,0.6324"
         style="fill:#807e7e;fill-opacity:1;fill-rule:nonzero;stroke:none"
         id="path320"
         inkscape:connector-curvature="0" /></g></g></svg>