<?xml version="1.0" encoding="UTF-8" standalone="no"?>
<!-- Created with Inkscape (http://www.inkscape.org/) -->

<svg
   xmlns:dc="http://purl.org/dc/elements/1.1/"
   xmlns:cc="http://creativecommons.org/ns#"
   xmlns:rdf="http://www.w3.org/1999/02/22-rdf-syntax-ns#"
   xmlns:svg="http://www.w3.org/2000/svg"
   xmlns="http://www.w3.org/2000/svg"
   xmlns:sodipodi="http://sodipodi.sourceforge.net/DTD/sodipodi-0.dtd"
   xmlns:inkscape="http://www.inkscape.org/namespaces/inkscape"
   id="svg2"
   version="1.1"
   inkscape:version="0.48.3.1 r9886"
   width="60"
   height="60"
   xml:space="preserve"
   sodipodi:docname="All_Icons.svg"><metadata
     id="metadata8"><rdf:RDF><cc:Work
         rdf:about=""><dc:format>image/svg+xml</dc:format><dc:type
           rdf:resource="http://purl.org/dc/dcmitype/StillImage" /><dc:title></dc:title></cc:Work></rdf:RDF></metadata><defs
     id="defs6"><clipPath
       clipPathUnits="userSpaceOnUse"
       id="clipPath18"><path
         d="M 0,13508.7 0,0 l 14670,0 0,13508.7 -14670,0 z"
         id="path20"
         inkscape:connector-curvature="0" /></clipPath></defs><sodipodi:namedview
     pagecolor="#ffffff"
     bordercolor="#666666"
     borderopacity="1"
     objecttolerance="10"
     gridtolerance="10"
     guidetolerance="10"
     inkscape:pageopacity="0"
     inkscape:pageshadow="2"
     inkscape:window-width="1855"
     inkscape:window-height="1056"
     id="namedview4"
     showgrid="false"
     inkscape:zoom="7.6379267"
     inkscape:cx="25.824638"
     inkscape:cy="20.734062"
     inkscape:window-x="65"
     inkscape:window-y="24"
     inkscape:window-maximized="1"
     inkscape:current-layer="g10"
     showguides="true"
     inkscape:guide-bbox="true" /><g
     id="g10"
     inkscape:groupmode="layer"
     inkscape:label="ink_ext_XXXXXX"
     transform="matrix(1.25,0,0,-1.25,0,60)"><g
       id="g5356"><path
         d="m 40.917382,4.0000479 -33.8346912,0 0,1.5386006 c 0,0.8485749 0.6845951,1.5386007 1.5313392,1.5386007 l 30.772012,0 c 0.846744,0 1.53134,-0.6900258 1.53134,-1.5386007 l 0,-1.5386006"
         style="fill:#807e7e;fill-opacity:1;fill-rule:nonzero;stroke:none"
         id="path2972"
         inkscape:connector-curvature="0" /><path
         d="m 37.854549,5.5386485 -27.70918,0 0,3.0772013 c 0,0.8467749 0.702749,1.5386002 1.549493,1.5386002 l 24.610348,0 c 0.846745,0 1.549339,-0.6918253 1.549339,-1.5386002 l 0,-3.0772013"
         style="fill:#807e7e;fill-opacity:1;fill-rule:nonzero;stroke:none"
         id="path2974"
         inkscape:connector-curvature="0" /><path
         d="m 7.0826908,44.000049 33.8346912,0 0,-1.538601 c 0,-0.848575 -0.684596,-1.538601 -1.53134,-1.538601 l -30.772012,0 c -0.8467441,0 -1.5313392,0.690026 -1.5313392,1.538601 l 0,1.538601"
         style="fill:#807e7e;fill-opacity:1;fill-rule:nonzero;stroke:none"
         id="path2976"
         inkscape:connector-curvature="0" /><path
         d="m 10.145369,42.461448 27.70918,0 0,-3.077201 c 0,-0.848575 -0.702594,-1.538601 -1.549339,-1.538601 l -24.610348,0 c -0.846744,0 -1.549493,0.690026 -1.549493,1.538601 l 0,3.077201"
         style="fill:#807e7e;fill-opacity:1;fill-rule:nonzero;stroke:none"
         id="path2978"
         inkscape:connector-curvature="0" /><path
         d="m 17.351925,41.935356 c -1.549339,0 -5.188615,0 -5.188615,-3.457344 0,-8.150605 3.260826,-10.883693 5.422916,-12.690732 1.279039,-1.071984 1.38719,-1.266563 1.38719,-1.787239 0,-0.560307 -0.180149,-0.785516 -1.423343,-1.841269 C 15.424136,20.335518 12.16331,17.5772 12.16331,9.5202691 c 0,-3.4519285 3.675275,-3.4519285 5.440915,-3.4519285 0.612598,0 1.333192,0.010769 2.179936,0.023384 1.207041,0.019846 2.666383,0.045076 4.450022,0.045076 2.125937,0 3.711429,-0.05046 5.008621,-0.090151 0.828745,-0.027076 1.51334,-0.045076 2.053785,-0.045076 3.008834,0 4.540174,1.1836727 4.540174,3.5185882 0,8.1127905 -3.29698,10.8584785 -5.476915,12.6763325 -1.315192,1.088198 -1.441342,1.284577 -1.441342,1.803439 0,0.504462 0.12615,0.697241 1.405189,1.749394 2.198089,1.799839 5.513068,4.516713 5.513068,12.726777 0,1.335022 -0.720594,2.985327 -4.089725,3.260965 -1.441342,0.11892 -3.639277,0.124304 -7.747002,0.124304 -1.837638,0 -3.314979,0.02708 -4.522174,0.04861 -0.828744,0.01385 -1.531339,0.02523 -2.125937,0.02523 l 0,0 z m 0,-2.48805 c 1.423343,0 3.53128,-0.07569 6.648111,-0.07569 7.675004,0 9.332493,-0.0092 9.332493,-0.895419 0,-11.481845 -6.882258,-9.880185 -6.882258,-14.476172 0,-4.597771 6.882258,-3.113231 6.882258,-14.4797712 0,-0.8377599 -0.432449,-1.0287234 -2.03594,-1.0287234 -1.35119,0 -3.567125,0.1350729 -7.062406,0.1350729 -3.02668,0 -5.170616,-0.068459 -6.629958,-0.068459 -2.252087,0 -2.936682,0.1585337 -2.936682,0.9620638 0,11.3070964 6.792107,9.8837994 6.792107,14.4797714 0,4.594187 -6.792107,3.055586 -6.792107,14.477971 0,0.807146 0.576445,0.969295 2.684382,0.969295"
         style="fill:#807e7e;fill-opacity:1;fill-rule:nonzero;stroke:none"
         id="path2982"
         inkscape:connector-curvature="0" /><path
         d="m 24.558481,21.441716 c 0,5.552651 4.089725,6.269707 4.089725,8.710927 l -9.170344,0 c 0,-2.080892 4.017728,-2.972697 4.017728,-8.710927 0,-3.671737 -5.585066,-5.134663 -5.585066,-11.287266 l 12.179024,0 c 0,6.105758 -5.531067,7.674989 -5.531067,11.287266"
         style="fill:#807e7e;fill-opacity:1;fill-rule:nonzero;stroke:none"
         id="path2984"
         inkscape:connector-curvature="0" /></g></g></svg>