<?xml version="1.0" encoding="UTF-8" standalone="no"?>
<!-- Created with Inkscape (http://www.inkscape.org/) -->

<svg
   xmlns:dc="http://purl.org/dc/elements/1.1/"
   xmlns:cc="http://creativecommons.org/ns#"
   xmlns:rdf="http://www.w3.org/1999/02/22-rdf-syntax-ns#"
   xmlns:svg="http://www.w3.org/2000/svg"
   xmlns="http://www.w3.org/2000/svg"
   xmlns:sodipodi="http://sodipodi.sourceforge.net/DTD/sodipodi-0.dtd"
   xmlns:inkscape="http://www.inkscape.org/namespaces/inkscape"
   id="svg2"
   version="1.1"
   inkscape:version="0.48.3.1 r9886"
   width="32"
   height="32"
   xml:space="preserve"
   sodipodi:docname="restart_music_light.svg"><metadata
     id="metadata8"><rdf:RDF><cc:Work
         rdf:about=""><dc:format>image/svg+xml</dc:format><dc:type
           rdf:resource="http://purl.org/dc/dcmitype/StillImage" /><dc:title></dc:title></cc:Work></rdf:RDF></metadata><defs
     id="defs6"><clipPath
       clipPathUnits="userSpaceOnUse"
       id="clipPath18"><path
         d="M 0,13508.7 0,0 l 14670,0 0,13508.7 -14670,0 z"
         id="path20"
         inkscape:connector-curvature="0" /></clipPath></defs><sodipodi:namedview
     pagecolor="#ffffff"
     bordercolor="#666666"
     borderopacity="1"
     objecttolerance="10"
     gridtolerance="10"
     guidetolerance="10"
     inkscape:pageopacity="0"
     inkscape:pageshadow="2"
     inkscape:window-width="1920"
     inkscape:window-height="1021"
     id="namedview4"
     showgrid="false"
     inkscape:zoom="10.801659"
     inkscape:cx="2.2696104"
     inkscape:cy="14.314903"
     inkscape:window-x="0"
     inkscape:window-y="27"
     inkscape:window-maximized="1"
     inkscape:current-layer="g10" /><g
     id="g10"
     inkscape:groupmode="layer"
     inkscape:label="ink_ext_XXXXXX"
     transform="matrix(1.25,0,0,-1.25,0,32)"><g
       id="g4574"
       transform="matrix(0.73817479,0,0,0.73817479,-414.60366,-900.32491)"
       style="fill:#ffffff;fill-opacity:1;opacity:0.8"><path
         d="m 584.39998,1246.0036 -6.39889,4.0051 0,-8.0103 6.39889,4.0052"
         style="fill:#ffffff;fill-opacity:1;fill-rule:nonzero;stroke:none"
         id="path384"
         inkscape:connector-curvature="0" /><path
         d="m 573.60127,1228.0037 6.40006,-4.0051 0,7.9986 -6.40006,-3.9935"
         style="fill:#ffffff;fill-opacity:1;fill-rule:nonzero;stroke:none"
         id="path412"
         inkscape:connector-curvature="0" /><path
         d="m 573.95611,1231.9152 c -1.30929,1.2999 -2.11969,3.1034 -2.11969,5.0826 0,3.9583 3.20881,7.1671 7.16479,7.1671 0.0749,0 0.14756,-0.012 0.22251,-0.012 l 0.11477,1.6513 0.51411,1.9674 c -0.28224,0.023 -0.56447,0.047 -0.85139,0.047 -5.97144,0 -10.81277,-4.8484 -10.81277,-10.821 0,-2.9278 1.17344,-5.5862 3.07297,-7.5419 l 2.6947,2.4593"
         style="fill:#ffffff;fill-opacity:1;fill-rule:nonzero;stroke:none"
         id="path414"
         inkscape:connector-curvature="0" /><path
         d="m 586.74218,1244.5397 -2.6947,-2.4593 c 1.30812,-1.2882 2.11735,-3.0917 2.11735,-5.0826 0,-3.8998 -3.12567,-7.0734 -7.00904,-7.1554 l -0.0199,-1.2999 -0.81275,-2.3188 c 0.22485,-0.012 0.44853,-0.035 0.67807,-0.035 5.97027,0 10.81159,4.8484 10.81159,10.8093 0,2.9395 -1.17344,5.5979 -3.07062,7.5419"
         style="fill:#ffffff;fill-opacity:1;fill-rule:nonzero;stroke:none"
         id="path416"
         inkscape:connector-curvature="0" /></g></g></svg>