<?xml version="1.0" encoding="UTF-8" standalone="no"?>
<!-- Created with Inkscape (http://www.inkscape.org/) -->

<svg
   xmlns:dc="http://purl.org/dc/elements/1.1/"
   xmlns:cc="http://creativecommons.org/ns#"
   xmlns:rdf="http://www.w3.org/1999/02/22-rdf-syntax-ns#"
   xmlns:svg="http://www.w3.org/2000/svg"
   xmlns="http://www.w3.org/2000/svg"
   xmlns:sodipodi="http://sodipodi.sourceforge.net/DTD/sodipodi-0.dtd"
   xmlns:inkscape="http://www.inkscape.org/namespaces/inkscape"
   id="svg2"
   version="1.1"
   inkscape:version="0.48.3.1 r9886"
   width="60"
   height="60"
   xml:space="preserve"
   sodipodi:docname="calendar.svg"><metadata
     id="metadata8"><rdf:RDF><cc:Work
         rdf:about=""><dc:format>image/svg+xml</dc:format><dc:type
           rdf:resource="http://purl.org/dc/dcmitype/StillImage" /><dc:title></dc:title></cc:Work></rdf:RDF></metadata><defs
     id="defs6"><clipPath
       clipPathUnits="userSpaceOnUse"
       id="clipPath18"><path
         d="M 0,13508.7 0,0 l 14670,0 0,13508.7 -14670,0 z"
         id="path20"
         inkscape:connector-curvature="0" /></clipPath></defs><sodipodi:namedview
     pagecolor="#ffffff"
     bordercolor="#666666"
     borderopacity="1"
     objecttolerance="10"
     gridtolerance="10"
     guidetolerance="10"
     inkscape:pageopacity="0"
     inkscape:pageshadow="2"
     inkscape:window-width="1855"
     inkscape:window-height="1056"
     id="namedview4"
     showgrid="false"
     inkscape:zoom="5.4008298"
     inkscape:cx="-2.9223748"
     inkscape:cy="1.1052741"
     inkscape:window-x="65"
     inkscape:window-y="24"
     inkscape:window-maximized="1"
     inkscape:current-layer="g10" /><g
     id="g10"
     inkscape:groupmode="layer"
     inkscape:label="ink_ext_XXXXXX"
     transform="matrix(1.25,0,0,-1.25,0,60)"><g
       id="g5473"><path
         d="m 24.000937,26.450529 c -1.354607,0 -2.455102,-1.093189 -2.455102,-2.449608 0,-1.35826 1.100495,-2.451449 2.455102,-2.451449 1.352766,0 2.451434,1.093189 2.451434,2.451449 0,1.356419 -1.098668,2.449608 -2.451434,2.449608"
         style="fill:#807e7e;fill-opacity:1;fill-rule:nonzero;stroke:none"
         id="path276"
         inkscape:connector-curvature="0" /><path
         d="m 23.958884,22.766978 c -0.0016,0 -0.0016,0 -0.0062,0 -0.859197,0.01405 -1.51364,0.687349 -1.466108,1.482562 l 0.489915,9.599186 c 0.02185,0.360135 0.30895,0.999951 1.016404,0.999951 0.703817,0 0.996299,-0.639816 1.014578,-0.999951 l 0.422294,-9.599186 c 0.04574,-0.795213 -0.614232,-1.482562 -1.471604,-1.482562"
         style="fill:#807e7e;fill-opacity:1;fill-rule:nonzero;stroke:none"
         id="path278"
         inkscape:connector-curvature="0" /><path
         d="m 23.14174,24.967967 c 0.0016,0 0.0016,0 0.0031,0 0.696496,0.687349 1.707421,0.749508 2.228416,0.140801 l 5.292271,-6.089294 c 0.235818,-0.265071 0.458836,-0.950594 -0.111455,-1.528268 -0.570352,-0.563047 -1.261369,-0.343682 -1.531919,-0.109737 l -6.036284,5.35443 c -0.594127,0.530142 -0.539289,1.530093 0.155318,2.232068"
         style="fill:#807e7e;fill-opacity:1;fill-rule:nonzero;stroke:none"
         id="path280"
         inkscape:connector-curvature="0" /><path
         d="m 38.04965,24.000921 0.780586,0"
         style="fill:none;stroke:#807e7e;stroke-width:3.50448345999999988;stroke-linecap:round;stroke-linejoin:round;stroke-miterlimit:10;stroke-opacity:1;stroke-dasharray:none"
         id="path282"
         inkscape:connector-curvature="0" /><path
         d="m 9.9503828,24.000921 -0.77876,0"
         style="fill:none;stroke:#807e7e;stroke-width:3.50448345999999988;stroke-linecap:round;stroke-linejoin:round;stroke-miterlimit:10;stroke-opacity:1;stroke-dasharray:none"
         id="path292"
         inkscape:connector-curvature="0" /><path
         d="m 24.000937,9.9503669 0,-0.7805863"
         style="fill:none;stroke:#807e7e;stroke-width:3.50448345999999988;stroke-linecap:round;stroke-linejoin:round;stroke-miterlimit:10;stroke-opacity:1;stroke-dasharray:none"
         id="path294"
         inkscape:connector-curvature="0" /><path
         d="m 24.000937,38.047808 0,0.780586"
         style="fill:none;stroke:#807e7e;stroke-width:3.50448345999999988;stroke-linecap:round;stroke-linejoin:round;stroke-miterlimit:10;stroke-opacity:1;stroke-dasharray:none"
         id="path296"
         inkscape:connector-curvature="0" /><path
         d="m 24.000937,43.996348 c -11.047031,0 -20.0009212,-8.944743 -20.0009212,-19.995427 0,-11.05251 8.9538902,-19.9972684 20.0009212,-19.9972684 11.04519,0 19.99908,8.9447584 19.99908,19.9972684 0,11.050684 -8.95389,19.995427 -19.99908,19.995427 l 0,0 z m 0,-3.902932 c 8.875279,0 16.096148,-7.211736 16.096148,-16.092495 0,-8.8826 -7.220869,-16.0943366 -16.096148,-16.0943366 -8.878947,0 -16.0998158,7.2117366 -16.0998158,16.0943366 0,8.880759 7.2208688,16.092495 16.0998158,16.092495"
         style="fill:#807e7e;fill-opacity:1;fill-rule:nonzero;stroke:none"
         id="path1652"
         inkscape:connector-curvature="0" /></g></g></svg>