<?xml version="1.0" encoding="UTF-8" standalone="no"?>
<!-- Created with Inkscape (http://www.inkscape.org/) -->

<svg
   xmlns:dc="http://purl.org/dc/elements/1.1/"
   xmlns:cc="http://creativecommons.org/ns#"
   xmlns:rdf="http://www.w3.org/1999/02/22-rdf-syntax-ns#"
   xmlns:svg="http://www.w3.org/2000/svg"
   xmlns="http://www.w3.org/2000/svg"
   xmlns:sodipodi="http://sodipodi.sourceforge.net/DTD/sodipodi-0.dtd"
   xmlns:inkscape="http://www.inkscape.org/namespaces/inkscape"
   width="36"
   height="36"
   id="svg2"
   version="1.1"
   inkscape:version="0.48.4 r9939"
   sodipodi:docname="i796_icon_2_holo_light.svg">
  <defs
     id="defs4" />
  <sodipodi:namedview
     id="base"
     pagecolor="#ffffff"
     bordercolor="#666666"
     borderopacity="1.0"
     inkscape:pageopacity="0.0"
     inkscape:pageshadow="2"
     inkscape:zoom="7.9195959"
     inkscape:cx="-9.6218029"
     inkscape:cy="13.772502"
     inkscape:document-units="px"
     inkscape:current-layer="layer1"
     showgrid="false"
     inkscape:window-width="883"
     inkscape:window-height="637"
     inkscape:window-x="534"
     inkscape:window-y="272"
     inkscape:window-maximized="0" />
  <metadata
     id="metadata7">
    <rdf:RDF>
      <cc:Work
         rdf:about="">
        <dc:format>image/svg+xml</dc:format>
        <dc:type
           rdf:resource="http://purl.org/dc/dcmitype/StillImage" />
        <dc:title></dc:title>
      </cc:Work>
    </rdf:RDF>
  </metadata>
  <g
     inkscape:label="Layer 1"
     inkscape:groupmode="layer"
     id="layer1"
     transform="translate(0,-1016.3622)">
    <path
       style="fill:#e1e1e1;fill-opacity:0.80000001"
       d="M 18 2 C 9.1634437 2 2 9.1634437 2 18 C 2 26.836556 9.1634437 34 18 34 C 26.836556 34 34 26.836556 34 18 C 34 9.1634437 26.836556 2 18 2 z M 18 5.5 C 24.903559 5.5 30.5 11.096441 30.5 18 C 30.5 24.903559 24.903559 30.5 18 30.5 C 11.096441 30.5 5.5 24.903559 5.5 18 C 5.5 11.096441 11.096441 5.5 18 5.5 z "
       transform="translate(0,1016.3622)"
       id="path2985" />
    <rect
       style="fill:#e1e1e1;fill-opacity:0.80000001"
       id="rect2990"
       width="4"
       height="16"
       x="13.5"
       y="1026.3622"
       rx="1.5084945"
       ry="2.0113261" />
    <rect
       ry="2.0113261"
       rx="1.5084945"
       y="1026.3622"
       x="18.5"
       height="16"
       width="4"
       id="rect3011"
       style="fill:#e1e1e1;fill-opacity:0.80000001" />
  </g>
</svg>
