<?xml version="1.0" encoding="UTF-8" standalone="no"?>
<!-- Generator: Adobe Illustrator 15.0.0, SVG Export Plug-In . SVG Version: 6.00 Build 0)  -->

<svg
   xmlns:dc="http://purl.org/dc/elements/1.1/"
   xmlns:cc="http://creativecommons.org/ns#"
   xmlns:rdf="http://www.w3.org/1999/02/22-rdf-syntax-ns#"
   xmlns:svg="http://www.w3.org/2000/svg"
   xmlns="http://www.w3.org/2000/svg"
   xmlns:sodipodi="http://sodipodi.sourceforge.net/DTD/sodipodi-0.dtd"
   xmlns:inkscape="http://www.inkscape.org/namespaces/inkscape"
   version="1.1"
   id="Layer_1"
   x="0px"
   y="0px"
   width="60"
   height="60"
   viewBox="0 0 60 60"
   enable-background="new 0 0 650 690"
   xml:space="preserve"
   inkscape:version="0.48.3.1 r9886"
   sodipodi:docname="github.svg"><metadata
   id="metadata27"><rdf:RDF><cc:Work
       rdf:about=""><dc:format>image/svg+xml</dc:format><dc:type
         rdf:resource="http://purl.org/dc/dcmitype/StillImage" /></cc:Work></rdf:RDF></metadata><defs
   id="defs25">
	
	
	
	
</defs><sodipodi:namedview
   pagecolor="#ffffff"
   bordercolor="#666666"
   borderopacity="1"
   objecttolerance="10"
   gridtolerance="10"
   guidetolerance="10"
   inkscape:pageopacity="0"
   inkscape:pageshadow="2"
   inkscape:window-width="1855"
   inkscape:window-height="1056"
   id="namedview23"
   showgrid="false"
   inkscape:zoom="10.944928"
   inkscape:cx="22.283211"
   inkscape:cy="30.422937"
   inkscape:window-x="65"
   inkscape:window-y="24"
   inkscape:window-maximized="1"
   inkscape:current-layer="Layer_1" />
<g
   id="g3776"><path
     clip-rule="evenodd"
     d="m 37.937482,52.352489 c -2.511055,0 -5.02211,0 -7.533164,0 -2.510954,0 -5.022009,0 -7.533064,0 C 21.818996,52.184931 20.754683,52.012552 19.719603,51.81757 18.684523,51.622689 17.678976,51.405105 16.744349,51.147239 13.879294,50.356764 11.344633,49.250462 9.2491571,47.702261 7.1537821,46.15396 5.4976935,44.16366 4.3899846,41.605292 3.2590708,38.99328 2.5960728,35.640721 2.5096821,32.332461 2.423191,29.024101 2.9134077,25.760042 4.0887223,23.32493 4.488932,22.495781 4.9825642,21.772109 5.4809177,21.077668 5.9792711,20.383228 6.4822455,19.718121 6.9010392,19.0059 6.2568262,17.345994 6.0350232,15.180904 6.1731478,13.09457 6.3112724,11.008336 6.8091236,9.0008588 7.6041185,7.6559775 c 2.5837835,-0.051834 4.6886015,0.587155 6.5765385,1.4847136 1.887937,0.8974579 3.559093,2.0532849 5.275555,3.0351249 2.570524,-0.768375 5.636789,-1.226547 8.787134,-1.364069 3.150446,-0.137521 6.384972,0.04581 9.292218,0.560535 0.440492,0.07795 0.896153,0.220296 1.315248,0.334814 0.418994,0.114518 0.801424,0.201009 1.095353,0.167457 0.376603,-0.0431 0.765059,-0.282577 1.179031,-0.579822 0.413872,-0.297344 0.853359,-0.65245 1.332023,-0.92679 1.351612,-0.7746031 2.729141,-1.4842118 4.222393,-1.984273 1.493253,-0.5000612 3.10253,-0.7907758 4.917838,-0.7275901 0.595392,1.3454841 1.044624,3.1590851 1.220921,5.0602821 0.176297,1.901297 0.07956,3.890291 -0.417387,5.586461 1.000825,1.16095 2.052481,2.543501 2.930752,4.149765 0.878271,1.606363 1.583159,3.436439 1.890348,5.492637 0.321353,2.150524 0.353398,4.495327 0.150882,6.774834 -0.202415,2.279508 -0.639291,4.49372 -1.255678,6.383064 -1.22956,3.768942 -3.568536,6.35132 -6.703211,8.106456 -3.134674,1.755137 -7.064545,2.683032 -11.476595,3.142912 z m 8.537505,-18.882986 c 0.163941,-0.164042 0.619401,-0.560635 1.032067,-0.956526 0.412666,-0.395789 0.782739,-0.790976 0.775909,-0.951804 -0.0021,-0.05043 -0.273136,-0.322056 -0.596397,-0.621008 -0.323262,-0.299052 -0.69886,-0.625428 -0.910317,-0.78515 -1.741374,-1.316352 -4.310893,-1.656591 -7.056106,-1.648253 -2.745113,0.0082 -5.666122,0.365051 -8.110575,0.442903 0.757525,0.883093 1.655285,1.843636 2.60528,2.793632 0.949996,0.949996 1.952329,1.889544 2.9191,2.730748 1.135937,-0.305783 2.614121,-0.404931 3.998481,-0.290313 1.38436,0.114619 2.674493,0.443305 3.434329,0.993392 0.356111,-0.246414 0.646323,-0.486399 0.940855,-0.758128 0.294532,-0.27193 0.593584,-0.575603 0.967374,-0.949493 z M 31.609668,32.565615 c -0.517339,-0.517339 -1.13242,-1.316452 -1.787683,-2.038618 -0.655263,-0.722166 -1.350809,-1.367484 -2.028975,-1.577332 -0.68118,-0.210753 -1.476878,-0.260378 -2.294475,-0.270021 -0.817598,-0.0096 -1.657194,0.02029 -2.426272,-0.03134 -0.839596,-0.05635 -1.698279,-0.110299 -2.532953,-0.135814 -0.834675,-0.02552 -1.64524,-0.0225 -2.388702,0.03546 -2.397642,0.186443 -4.402105,1.199524 -5.872153,2.663946 -1.470047,1.464221 -2.405678,3.379783 -2.6653522,5.371389 -0.3515898,2.69579 0.1125088,5.04662 1.1354342,6.966903 1.023026,1.920183 2.604979,3.409819 4.4893,4.383019 1.940073,1.002032 4.253233,1.604656 6.770415,1.956749 2.517182,0.352092 5.238387,0.453852 7.99445,0.453852 2.824472,0 5.651053,0.0089 8.26658,-0.225118 2.615427,-0.234058 5.0201,-0.711216 7.000556,-1.683312 1.792003,-0.879477 3.302835,-2.316776 4.28819,-4.284674 0.985456,-1.967799 1.445436,-4.465895 1.135635,-7.466965 -0.05907,-0.571484 -0.165146,-0.983246 -0.328887,-1.422834 -0.163941,-0.439588 -0.385443,-0.907102 -0.675555,-1.590391 -0.547475,0.306485 -1.11906,0.806245 -1.66965,1.368789 -0.550589,0.562443 -1.080485,1.187671 -1.544483,1.74489 0.623619,0.499559 0.959137,1.372306 1.046331,2.286439 0.08719,0.914234 -0.07393,1.869654 -0.443706,2.534762 -0.948088,1.705613 -2.962597,2.780473 -5.088711,2.991829 -2.126114,0.211456 -4.363933,-0.440492 -5.758941,-2.188296 -0.567566,-0.711316 -1.038697,-1.69858 -1.257788,-2.780372 -0.219191,-1.081691 -0.186342,-2.25781 0.253346,-3.346533 -0.519851,-0.685097 -1.08802,-1.278581 -1.694161,-1.868448 -0.606342,-0.590069 -1.250354,-1.176621 -1.92179,-1.847957 z"
     id="path5"
     inkscape:connector-curvature="0"
     style="fill:#5669ab;fill-rule:evenodd;fill-opacity:1" /><path
     clip-rule="evenodd"
     d="m 18.652679,34.37349 c 2.169007,-0.407844 3.261046,1.841327 3.239649,4.072214 -0.0214,2.230989 -1.156128,4.443694 -3.440558,3.963121 -1.542173,-0.324367 -2.253389,-2.190103 -2.198341,-4.046196 0.05505,-1.856093 0.876363,-3.702844 2.39925,-3.989139 z"
     id="path7"
     inkscape:connector-curvature="0"
     style="fill:#5669ab;fill-rule:evenodd;fill-opacity:1" /><path
     clip-rule="evenodd"
     d="m 29.902147,42.810541 c 0.488208,-0.140435 0.83377,-0.07745 1.060295,0.102062 0.226524,0.179713 0.33401,0.475952 0.345763,0.801926 0.04832,1.329512 -0.942964,1.287723 -1.626354,0.821415 -0.68339,-0.466309 -1.059089,-1.357037 0.220296,-1.725403 z"
     id="path9"
     inkscape:connector-curvature="0"
     style="fill:#5669ab;fill-rule:evenodd;fill-opacity:1" /><path
     clip-rule="evenodd"
     d="m 27.792909,46.024675 c 0.03345,0 0.067,0 0.100455,0 0.03345,0 0.0669,0 0.100454,0 0.357818,0.416484 0.710914,0.843716 1.124485,1.141663 0.41357,0.297847 0.887513,0.466208 1.487024,0.36495 0.418291,-0.07062 0.696148,-0.299555 0.943868,-0.584644 0.24772,-0.285089 0.465505,-0.626432 0.763552,-0.921969 0.477259,0.378311 0.293829,0.900974 -0.13059,1.343978 -0.42452,0.443003 -1.090029,0.806346 -1.57683,0.865815 -0.670432,0.08177 -1.445235,-0.142947 -2.016619,-0.551896 -0.571283,-0.40905 -0.939247,-1.002332 -0.795799,-1.657897 z"
     id="path11"
     inkscape:connector-curvature="0"
     style="fill:#5669ab;fill-rule:evenodd;fill-opacity:1" /></g>

</svg>