<?xml version="1.0" encoding="UTF-8" standalone="no"?>
<!-- Created with Inkscape (http://www.inkscape.org/) -->

<svg
   xmlns:dc="http://purl.org/dc/elements/1.1/"
   xmlns:cc="http://creativecommons.org/ns#"
   xmlns:rdf="http://www.w3.org/1999/02/22-rdf-syntax-ns#"
   xmlns:svg="http://www.w3.org/2000/svg"
   xmlns="http://www.w3.org/2000/svg"
   xmlns:xlink="http://www.w3.org/1999/xlink"
   xmlns:sodipodi="http://sodipodi.sourceforge.net/DTD/sodipodi-0.dtd"
   xmlns:inkscape="http://www.inkscape.org/namespaces/inkscape"
   version="1.1"
   width="48"
   height="48"
   id="svg4362"
   inkscape:version="0.48.3.1 r9886"
   sodipodi:docname="icon.svg">
  <sodipodi:namedview
     pagecolor="#ffffff"
     bordercolor="#666666"
     borderopacity="1"
     objecttolerance="10"
     gridtolerance="10"
     guidetolerance="10"
     inkscape:pageopacity="0"
     inkscape:pageshadow="2"
     inkscape:window-width="1855"
     inkscape:window-height="1056"
     id="namedview2991"
     showgrid="false"
     inkscape:zoom="8.7315411"
     inkscape:cx="21.825957"
     inkscape:cy="28.182988"
     inkscape:window-x="65"
     inkscape:window-y="24"
     inkscape:window-maximized="1"
     inkscape:current-layer="svg4362"
     fit-margin-top="0"
     fit-margin-left="0"
     fit-margin-right="0"
     fit-margin-bottom="0" />
  <defs
     id="defs4364">
    <linearGradient
       id="linearGradient4449">
      <stop
         style="stop-color:#404040;stop-opacity:1;"
         offset="0"
         id="stop4451" />
      <stop
         style="stop-color:#000000;stop-opacity:1;"
         offset="1"
         id="stop4453" />
    </linearGradient>
    <linearGradient
       id="linearGradient4397">
      <stop
         style="stop-color:#83a12b;stop-opacity:1;"
         offset="0"
         id="stop4399" />
      <stop
         style="stop-color:#b6ed17;stop-opacity:1;"
         offset="1"
         id="stop4401" />
    </linearGradient>
    <linearGradient
       inkscape:collect="always"
       id="linearGradient4361">
      <stop
         style="stop-color:#ffffff;stop-opacity:1;"
         offset="0"
         id="stop4363" />
      <stop
         style="stop-color:#ffffff;stop-opacity:0;"
         offset="1"
         id="stop4365" />
    </linearGradient>
    <linearGradient
       id="linearGradient3859">
      <stop
         style="stop-color:#fafafa;stop-opacity:1;"
         offset="0"
         id="stop3861" />
      <stop
         id="stop3991"
         offset="0.07209875"
         style="stop-color:#d5d5d5;stop-opacity:1;" />
      <stop
         id="stop3989"
         offset="0.57848388"
         style="stop-color:#b0b0b0;stop-opacity:1;" />
      <stop
         style="stop-color:#333333;stop-opacity:1;"
         offset="1"
         id="stop3863" />
    </linearGradient>
    <linearGradient
       inkscape:collect="always"
       xlink:href="#linearGradient3859"
       id="linearGradient3855"
       x1="296.68945"
       y1="460.51663"
       x2="296.68945"
       y2="499.37781"
       gradientUnits="userSpaceOnUse" />
    <linearGradient
       inkscape:collect="always"
       xlink:href="#linearGradient3859"
       id="linearGradient3857"
       x1="218.94574"
       y1="452.28128"
       x2="218.94574"
       y2="491.14246"
       gradientUnits="userSpaceOnUse" />
    <filter
       id="filter3949"
       inkscape:label="Drop shadow"
       width="1.5"
       height="1.5"
       x="-0.25"
       y="-0.25"
       color-interpolation-filters="sRGB">
      <feGaussianBlur
         id="feGaussianBlur3951"
         in="SourceAlpha"
         stdDeviation="2"
         result="blur" />
      <feColorMatrix
         id="feColorMatrix3953"
         result="bluralpha"
         type="matrix"
         values="1 0 0 0 0 0 1 0 0 0 0 0 1 0 0 0 0 0 0.5 0 " />
      <feOffset
         id="feOffset3955"
         in="bluralpha"
         dx="3"
         dy="3"
         result="offsetBlur" />
      <feMerge
         id="feMerge3957">
        <feMergeNode
           id="feMergeNode3959"
           in="offsetBlur" />
        <feMergeNode
           id="feMergeNode3961"
           in="SourceGraphic" />
      </feMerge>
    </filter>
    <filter
       id="filter3963"
       inkscape:label="Drop shadow"
       width="1.5"
       height="1.5"
       x="-0.25"
       y="-0.25"
       color-interpolation-filters="sRGB">
      <feGaussianBlur
         id="feGaussianBlur3965"
         in="SourceAlpha"
         stdDeviation="1.3551569506726457"
         result="blur" />
      <feColorMatrix
         id="feColorMatrix3967"
         result="bluralpha"
         type="matrix"
         values="1 0 0 0 0 0 1 0 0 0 0 0 1 0 0 0 0 0 0.5 0 " />
      <feOffset
         id="feOffset3969"
         in="bluralpha"
         dx="3"
         dy="3"
         result="offsetBlur" />
      <feMerge
         id="feMerge3971">
        <feMergeNode
           id="feMergeNode3973"
           in="offsetBlur" />
        <feMergeNode
           id="feMergeNode3975"
           in="SourceGraphic" />
      </feMerge>
    </filter>
    <linearGradient
       inkscape:collect="always"
       xlink:href="#linearGradient3859"
       id="linearGradient3981"
       gradientUnits="userSpaceOnUse"
       x1="296.68945"
       y1="460.51663"
       x2="296.68945"
       y2="499.37781" />
    <linearGradient
       inkscape:collect="always"
       xlink:href="#linearGradient3859"
       id="linearGradient3987"
       gradientUnits="userSpaceOnUse"
       x1="218.94574"
       y1="452.28128"
       x2="218.94574"
       y2="491.14246" />
    <filter
       id="filter4133"
       inkscape:label="Drop shadow"
       width="1.5"
       height="1.5"
       x="-0.25"
       y="-0.25"
       color-interpolation-filters="sRGB">
      <feGaussianBlur
         id="feGaussianBlur4135"
         in="SourceAlpha"
         stdDeviation="3"
         result="blur" />
      <feColorMatrix
         id="feColorMatrix4137"
         result="bluralpha"
         type="matrix"
         values="1 0 0 0 0 0 1 0 0 0 0 0 1 0 0 0 0 0 0.7 0 " />
      <feOffset
         id="feOffset4139"
         in="bluralpha"
         dx="5"
         dy="5"
         result="offsetBlur" />
      <feMerge
         id="feMerge4141">
        <feMergeNode
           id="feMergeNode4143"
           in="offsetBlur" />
        <feMergeNode
           id="feMergeNode4145"
           in="SourceGraphic" />
      </feMerge>
    </filter>
    <filter
       id="filter4147"
       inkscape:label="Drop shadow"
       width="1.5"
       height="1.5"
       x="-0.25"
       y="-0.25"
       color-interpolation-filters="sRGB">
      <feGaussianBlur
         id="feGaussianBlur4149"
         in="SourceAlpha"
         stdDeviation="3"
         result="blur" />
      <feColorMatrix
         id="feColorMatrix4151"
         result="bluralpha"
         type="matrix"
         values="1 0 0 0 0 0 1 0 0 0 0 0 1 0 0 0 0 0 0.7 0 " />
      <feOffset
         id="feOffset4153"
         in="bluralpha"
         dx="5"
         dy="5"
         result="offsetBlur" />
      <feMerge
         id="feMerge4155">
        <feMergeNode
           id="feMergeNode4157"
           in="offsetBlur" />
        <feMergeNode
           id="feMergeNode4159"
           in="SourceGraphic" />
      </feMerge>
    </filter>
    <linearGradient
       inkscape:collect="always"
       xlink:href="#linearGradient4361"
       id="linearGradient4367"
       x1="111.77867"
       y1="282.8219"
       x2="366.70993"
       y2="284.65433"
       gradientUnits="userSpaceOnUse"
       gradientTransform="translate(-0.90625,-2.6929364)" />
    <linearGradient
       inkscape:collect="always"
       xlink:href="#linearGradient4361"
       id="linearGradient4395"
       x1="452.78125"
       y1="218.13989"
       x2="658.125"
       y2="218.13989"
       gradientUnits="userSpaceOnUse"
       gradientTransform="translate(5.4973114,1.8324371)" />
    <radialGradient
       inkscape:collect="always"
       xlink:href="#linearGradient4397"
       id="radialGradient4403"
       cx="240.2373"
       cy="285.1312"
       fx="240.2373"
       fy="285.1312"
       r="133"
       gradientTransform="matrix(0.79799852,-1.0521185,1.1605513,0.88024159,-282.38109,286.90497)"
       gradientUnits="userSpaceOnUse" />
    <radialGradient
       inkscape:collect="always"
       xlink:href="#linearGradient4397"
       id="radialGradient4413"
       cx="555.98566"
       cy="265.19373"
       fx="555.98566"
       fy="265.19373"
       r="139.59587"
       gradientTransform="matrix(1,0,0,1.553359,0,-136.59251)"
       gradientUnits="userSpaceOnUse" />
    <linearGradient
       inkscape:collect="always"
       xlink:href="#linearGradient3859"
       id="linearGradient4437"
       gradientUnits="userSpaceOnUse"
       x1="218.94574"
       y1="452.28128"
       x2="218.94574"
       y2="491.14246" />
    <linearGradient
       inkscape:collect="always"
       xlink:href="#linearGradient3859"
       id="linearGradient4439"
       gradientUnits="userSpaceOnUse"
       x1="218.94574"
       y1="452.28128"
       x2="218.94574"
       y2="491.14246" />
    <linearGradient
       inkscape:collect="always"
       xlink:href="#linearGradient3859"
       id="linearGradient4445"
       gradientUnits="userSpaceOnUse"
       x1="296.68945"
       y1="460.51663"
       x2="296.68945"
       y2="499.37781" />
    <linearGradient
       inkscape:collect="always"
       xlink:href="#linearGradient3859"
       id="linearGradient4447"
       gradientUnits="userSpaceOnUse"
       x1="296.68945"
       y1="460.51663"
       x2="296.68945"
       y2="499.37781" />
    <radialGradient
       inkscape:collect="always"
       xlink:href="#linearGradient4449"
       id="radialGradient4455"
       cx="402.97162"
       cy="283.62177"
       fx="402.97162"
       fy="283.62177"
       r="411.746"
       gradientTransform="matrix(1,0,0,0.68845568,0,88.36075)"
       gradientUnits="userSpaceOnUse" />
    <radialGradient
       inkscape:collect="always"
       xlink:href="#linearGradient4449"
       id="radialGradient4611"
       gradientUnits="userSpaceOnUse"
       gradientTransform="matrix(0.97383784,0,0,0.73118394,7.570978,92.62032)"
       cx="402.97162"
       cy="283.62177"
       fx="402.97162"
       fy="283.62177"
       r="411.746" />
    <radialGradient
       inkscape:collect="always"
       xlink:href="#linearGradient4397"
       id="radialGradient4649"
       gradientUnits="userSpaceOnUse"
       gradientTransform="matrix(1,0,0,1.553359,0,-136.59251)"
       cx="555.98566"
       cy="265.19373"
       fx="555.98566"
       fy="265.19373"
       r="139.59587" />
    <radialGradient
       inkscape:collect="always"
       xlink:href="#linearGradient4397"
       id="radialGradient4651"
       gradientUnits="userSpaceOnUse"
       gradientTransform="matrix(0.79799852,-1.0521185,1.1605513,0.88024159,-282.38109,286.90497)"
       cx="240.2373"
       cy="285.1312"
       fx="240.2373"
       fy="285.1312"
       r="133" />
    <linearGradient
       inkscape:collect="always"
       xlink:href="#linearGradient3859"
       id="linearGradient4653"
       gradientUnits="userSpaceOnUse"
       x1="218.94574"
       y1="452.28128"
       x2="218.94574"
       y2="491.14246" />
    <linearGradient
       inkscape:collect="always"
       xlink:href="#linearGradient3859"
       id="linearGradient4655"
       gradientUnits="userSpaceOnUse"
       x1="218.94574"
       y1="452.28128"
       x2="218.94574"
       y2="491.14246" />
    <linearGradient
       inkscape:collect="always"
       xlink:href="#linearGradient3859"
       id="linearGradient4657"
       gradientUnits="userSpaceOnUse"
       x1="218.94574"
       y1="452.28128"
       x2="218.94574"
       y2="491.14246" />
    <linearGradient
       inkscape:collect="always"
       xlink:href="#linearGradient3859"
       id="linearGradient4659"
       gradientUnits="userSpaceOnUse"
       x1="218.94574"
       y1="452.28128"
       x2="218.94574"
       y2="491.14246" />
    <linearGradient
       inkscape:collect="always"
       xlink:href="#linearGradient3859"
       id="linearGradient4661"
       gradientUnits="userSpaceOnUse"
       x1="218.94574"
       y1="452.28128"
       x2="218.94574"
       y2="491.14246" />
    <linearGradient
       inkscape:collect="always"
       xlink:href="#linearGradient3859"
       id="linearGradient4663"
       gradientUnits="userSpaceOnUse"
       x1="218.94574"
       y1="452.28128"
       x2="218.94574"
       y2="491.14246" />
    <linearGradient
       inkscape:collect="always"
       xlink:href="#linearGradient3859"
       id="linearGradient4665"
       gradientUnits="userSpaceOnUse"
       x1="218.94574"
       y1="452.28128"
       x2="218.94574"
       y2="491.14246" />
    <linearGradient
       inkscape:collect="always"
       xlink:href="#linearGradient3859"
       id="linearGradient4667"
       gradientUnits="userSpaceOnUse"
       x1="218.94574"
       y1="452.28128"
       x2="218.94574"
       y2="491.14246" />
    <linearGradient
       inkscape:collect="always"
       xlink:href="#linearGradient3859"
       id="linearGradient4669"
       gradientUnits="userSpaceOnUse"
       x1="296.68945"
       y1="460.51663"
       x2="296.68945"
       y2="499.37781" />
    <linearGradient
       inkscape:collect="always"
       xlink:href="#linearGradient3859"
       id="linearGradient4671"
       gradientUnits="userSpaceOnUse"
       x1="296.68945"
       y1="460.51663"
       x2="296.68945"
       y2="499.37781" />
    <linearGradient
       inkscape:collect="always"
       xlink:href="#linearGradient3859"
       id="linearGradient4673"
       gradientUnits="userSpaceOnUse"
       x1="296.68945"
       y1="460.51663"
       x2="296.68945"
       y2="499.37781" />
    <linearGradient
       inkscape:collect="always"
       xlink:href="#linearGradient3859"
       id="linearGradient4675"
       gradientUnits="userSpaceOnUse"
       x1="296.68945"
       y1="460.51663"
       x2="296.68945"
       y2="499.37781" />
    <linearGradient
       inkscape:collect="always"
       xlink:href="#linearGradient3859"
       id="linearGradient4677"
       gradientUnits="userSpaceOnUse"
       x1="296.68945"
       y1="460.51663"
       x2="296.68945"
       y2="499.37781" />
    <linearGradient
       inkscape:collect="always"
       xlink:href="#linearGradient3859"
       id="linearGradient4679"
       gradientUnits="userSpaceOnUse"
       x1="296.68945"
       y1="460.51663"
       x2="296.68945"
       y2="499.37781" />
    <linearGradient
       inkscape:collect="always"
       xlink:href="#linearGradient3859"
       id="linearGradient4681"
       gradientUnits="userSpaceOnUse"
       x1="296.68945"
       y1="460.51663"
       x2="296.68945"
       y2="499.37781" />
    <linearGradient
       inkscape:collect="always"
       xlink:href="#linearGradient4361"
       id="linearGradient4683"
       gradientUnits="userSpaceOnUse"
       gradientTransform="translate(-0.90625,-2.6929364)"
       x1="111.77867"
       y1="282.8219"
       x2="366.70993"
       y2="284.65433" />
    <linearGradient
       inkscape:collect="always"
       xlink:href="#linearGradient4361"
       id="linearGradient4685"
       gradientUnits="userSpaceOnUse"
       gradientTransform="translate(5.4973114,1.8324371)"
       x1="452.78125"
       y1="218.13989"
       x2="658.125"
       y2="218.13989" />
    <linearGradient
       inkscape:collect="always"
       xlink:href="#linearGradient3859"
       id="linearGradient4687"
       gradientUnits="userSpaceOnUse"
       x1="218.94574"
       y1="452.28128"
       x2="218.94574"
       y2="491.14246" />
    <linearGradient
       inkscape:collect="always"
       xlink:href="#linearGradient3859"
       id="linearGradient4689"
       gradientUnits="userSpaceOnUse"
       x1="218.94574"
       y1="452.28128"
       x2="218.94574"
       y2="491.14246" />
    <linearGradient
       inkscape:collect="always"
       xlink:href="#linearGradient3859"
       id="linearGradient4691"
       gradientUnits="userSpaceOnUse"
       x1="218.94574"
       y1="452.28128"
       x2="218.94574"
       y2="491.14246" />
    <linearGradient
       inkscape:collect="always"
       xlink:href="#linearGradient3859"
       id="linearGradient4693"
       gradientUnits="userSpaceOnUse"
       x1="218.94574"
       y1="452.28128"
       x2="218.94574"
       y2="491.14246" />
    <linearGradient
       inkscape:collect="always"
       xlink:href="#linearGradient3859"
       id="linearGradient4695"
       gradientUnits="userSpaceOnUse"
       x1="218.94574"
       y1="452.28128"
       x2="218.94574"
       y2="491.14246" />
    <linearGradient
       inkscape:collect="always"
       xlink:href="#linearGradient3859"
       id="linearGradient4697"
       gradientUnits="userSpaceOnUse"
       x1="218.94574"
       y1="452.28128"
       x2="218.94574"
       y2="491.14246" />
    <linearGradient
       inkscape:collect="always"
       xlink:href="#linearGradient3859"
       id="linearGradient4699"
       gradientUnits="userSpaceOnUse"
       x1="218.94574"
       y1="452.28128"
       x2="218.94574"
       y2="491.14246" />
    <linearGradient
       inkscape:collect="always"
       xlink:href="#linearGradient3859"
       id="linearGradient4701"
       gradientUnits="userSpaceOnUse"
       x1="218.94574"
       y1="452.28128"
       x2="218.94574"
       y2="491.14246" />
    <linearGradient
       inkscape:collect="always"
       xlink:href="#linearGradient3859"
       id="linearGradient4703"
       gradientUnits="userSpaceOnUse"
       x1="296.68945"
       y1="460.51663"
       x2="296.68945"
       y2="499.37781" />
    <linearGradient
       inkscape:collect="always"
       xlink:href="#linearGradient3859"
       id="linearGradient4705"
       gradientUnits="userSpaceOnUse"
       x1="296.68945"
       y1="460.51663"
       x2="296.68945"
       y2="499.37781" />
    <linearGradient
       inkscape:collect="always"
       xlink:href="#linearGradient3859"
       id="linearGradient4707"
       gradientUnits="userSpaceOnUse"
       x1="296.68945"
       y1="460.51663"
       x2="296.68945"
       y2="499.37781" />
    <linearGradient
       inkscape:collect="always"
       xlink:href="#linearGradient3859"
       id="linearGradient4709"
       gradientUnits="userSpaceOnUse"
       x1="296.68945"
       y1="460.51663"
       x2="296.68945"
       y2="499.37781" />
    <linearGradient
       inkscape:collect="always"
       xlink:href="#linearGradient3859"
       id="linearGradient4711"
       gradientUnits="userSpaceOnUse"
       x1="296.68945"
       y1="460.51663"
       x2="296.68945"
       y2="499.37781" />
    <linearGradient
       inkscape:collect="always"
       xlink:href="#linearGradient3859"
       id="linearGradient4713"
       gradientUnits="userSpaceOnUse"
       x1="296.68945"
       y1="460.51663"
       x2="296.68945"
       y2="499.37781" />
    <linearGradient
       inkscape:collect="always"
       xlink:href="#linearGradient3859"
       id="linearGradient4715"
       gradientUnits="userSpaceOnUse"
       x1="296.68945"
       y1="460.51663"
       x2="296.68945"
       y2="499.37781" />
    <linearGradient
       inkscape:collect="always"
       xlink:href="#linearGradient4361"
       id="linearGradient3123"
       gradientUnits="userSpaceOnUse"
       gradientTransform="translate(-5.2902816,20.247393)"
       x1="452.78125"
       y1="218.13989"
       x2="658.125"
       y2="218.13989" />
    <linearGradient
       inkscape:collect="always"
       xlink:href="#linearGradient4361"
       id="linearGradient3126"
       gradientUnits="userSpaceOnUse"
       gradientTransform="translate(-11.693843,15.72202)"
       x1="111.77867"
       y1="282.8219"
       x2="366.70993"
       y2="284.65433" />
    <radialGradient
       inkscape:collect="always"
       xlink:href="#linearGradient4397"
       id="radialGradient3144"
       gradientUnits="userSpaceOnUse"
       gradientTransform="matrix(0.79799852,-1.0521185,1.1605513,0.88024159,-293.16868,305.31993)"
       cx="240.2373"
       cy="285.1312"
       fx="240.2373"
       fy="285.1312"
       r="133" />
    <radialGradient
       inkscape:collect="always"
       xlink:href="#linearGradient4397"
       id="radialGradient3147"
       gradientUnits="userSpaceOnUse"
       gradientTransform="matrix(1,0,0,1.553359,-10.787593,-118.17755)"
       cx="555.98566"
       cy="265.19373"
       fx="555.98566"
       fy="265.19373"
       r="139.59587" />
    <radialGradient
       inkscape:collect="always"
       xlink:href="#linearGradient4397"
       id="radialGradient3153"
       gradientUnits="userSpaceOnUse"
       gradientTransform="matrix(0.79799852,-1.0521185,1.1605513,0.88024159,-293.16868,305.31993)"
       cx="240.2373"
       cy="285.1312"
       fx="240.2373"
       fy="285.1312"
       r="133" />
    <linearGradient
       inkscape:collect="always"
       xlink:href="#linearGradient4361"
       id="linearGradient3155"
       gradientUnits="userSpaceOnUse"
       gradientTransform="translate(-11.693843,15.72202)"
       x1="111.77867"
       y1="282.8219"
       x2="366.70993"
       y2="284.65433" />
  </defs>
  <metadata
     id="metadata4367">
    <rdf:RDF>
      <cc:Work
         rdf:about="">
        <dc:format>image/svg+xml</dc:format>
        <dc:type
           rdf:resource="http://purl.org/dc/dcmitype/StillImage" />
        <dc:title />
      </cc:Work>
    </rdf:RDF>
  </metadata>
  <g
     id="g3149"
     transform="matrix(0.14693704,0,0,0.14693704,-9.917633,-20.602169)">
    <path
       d="m 175.16851,146.12444 c -0.1326,-0.003 -0.2737,0.0143 -0.4063,0.0312 -0.3536,0.0455 -0.7024,0.1539 -1.0312,0.34375 -1.3153,0.75939 -1.7495,2.45179 -1,3.75 l 14.0312,24.28125 c -25.2014,14.04865 -42.7569,40.11579 -44.8125,70.4375 l 49.9063,0 75.1875,0 49.9062,0 c -2.056,-30.32922 -19.6051,-56.39911 -44.8125,-70.4375 l 14.0313,-24.28125 c 0.7495,-1.29821 0.284,-2.99061 -1.0313,-3.75 -0.4932,-0.28477 -1.036,-0.37775 -1.5625,-0.34375 -0.8773,0.0567 -1.6878,0.53237 -2.1562,1.34375 l -14.1563,24.5 c -11.4486,-5.46457 -24.2712,-8.53125 -37.8125,-8.53125 -0.7254,0 -1.435,-0.0175 -2.1562,0 -12.7443,0.30858 -24.8174,3.3542 -35.6563,8.53125 l -14.1562,-24.5 c -0.4919,-0.85195 -1.3844,-1.35624 -2.3125,-1.375 z m 15.2812,51.84375 c 4.1422,0 7.5,3.35786 7.5,7.5 0,4.14214 -3.3578,7.5 -7.5,7.5 -4.1421,0 -7.5,-3.35786 -7.5,-7.5 0,-4.14214 3.3579,-7.5 7.5,-7.5 z m 79,0 c 4.1422,0 7.5,3.35786 7.5,7.5 0,4.14214 -3.3578,7.5 -7.5,7.5 -4.1421,0 -7.5,-3.35786 -7.5,-7.5 0,-4.14214 3.3579,-7.5 7.5,-7.5 z m -154,51 c -10.4934,0 -19.000003,8.50659 -19.000003,19.00004 l 0,23 0,35 0,23 c 0,10.4934 8.506603,19 19.000003,19 10.4935,0 19,-8.5066 19,-19 l 0,-23 0,-35 0,-23 c 0,-10.49345 -8.5065,-19.00004 -19,-19.00004 z m 228,0 c -10.4934,0 -19,8.50659 -19,19.00004 l 0,23 0,35 0,23 c 0,10.4934 8.5066,19 19,19 10.4935,0 19,-8.5066 19,-19 l 0,-23 0,-35 0,-23 c 0,-10.49345 -8.5065,-19.00004 -19,-19.00004 z m -201.5,3 0,127.00004 c 0,10.4618 8.5502,18.9489 19,19 0.032,10e-5 0.094,0 0.094,0 l 17.9062,0 0,44 c 0,10.4934 8.5066,19 19,19 10.4935,0 19,-8.5066 19,-19 l 0,-44 27,0 0,44 c 0,10.4934 8.5066,19 19,19 10.4935,0 19,-8.5066 19,-19 l 0,-44 15.9063,0 c 0,0 0.062,10e-5 0.094,0 10.4498,-0.051 19,-8.5382 19,-19 l 0,-127.00004 -50,0 -75,0 -50,0 z"
       id="path3826"
       style="color:#000000;fill:url(#radialGradient3153);fill-opacity:1;fill-rule:nonzero;stroke:none;stroke-width:1.5;marker:none;visibility:visible;display:inline;overflow:visible;enable-background:accumulate"
       inkscape:connector-curvature="0" />
    <path
       inkscape:connector-curvature="0"
       id="path4355"
       d="m 177.93116,150.75328 c -0.1326,-0.003 -0.27365,0.0144 -0.40625,0.0312 -0.3536,0.0455 -0.70245,0.1539 -1.03125,0.34375 -1.3153,0.75939 -1.7495,2.45179 -1,3.75 l 14.03125,24.28125 c -25.2014,14.04865 -42.7569,40.11579 -44.8125,70.4375 l 49.90625,0 75.1875,0 49.90625,0 c -2.056,-30.32922 -19.6051,-56.39911 -44.8125,-70.4375 l 14.03125,-24.2812 c 0.7495,-1.29821 0.28405,-2.99061 -1.03125,-3.75 -0.4932,-0.28477 -1.036,-0.37775 -1.5625,-0.34375 -0.8773,0.0567 -1.68785,0.53237 -2.15625,1.34375 l -14.15625,24.5 c -11.4486,-5.46457 -24.2712,-8.53125 -37.8125,-8.53125 -0.7254,0 -1.43505,-0.0175 -2.15625,0 -12.7443,0.30858 -24.81735,3.3542 -35.65625,8.53125 l -14.15625,-24.5 c -0.4919,-0.85195 -1.3844,-1.35624 -2.3125,-1.375 z m 15.28125,51.84375 c 4.1422,0 7.5,3.35786 7.5,7.5 0,4.14214 -3.3578,7.5 -7.5,7.5 -4.1421,0 -7.5,-3.35786 -7.5,-7.5 0,-4.14214 3.3579,-7.5 7.5,-7.5 z m 79,0 c 4.1422,0 7.5,3.35786 7.5,7.5 0,4.14214 -3.3578,7.5 -7.5,7.5 -4.1421,0 -7.5,-3.35786 -7.5,-7.5 0,-4.14214 3.3579,-7.5 7.5,-7.5 z m -154,51 c -10.4934,0 -19.000003,8.50655 -19.000003,19 l 0,23 0,35 0,17.5 c 12.673503,-4.60394 25.326503,-8.99241 38.000003,-13.09375 l 0,-4.40625 0,-35 0,-23 c 0,-10.49345 -8.5065,-19 -19,-19 z m 228,0 c -10.4934,0 -19,8.50655 -19,19 l 0,19.96875 c 12.67192,-1.55327 25.32808,-2.87009 38,-3.90625 l 0,-16.0625 c 0,-10.49345 -8.5065,-19 -19,-19 z m -201.5,3 0,76.03125 c 58.32477,-18.41719 116.67523,-31.50745 175,-39.125 l 0,-36.90625 -50,0 -75,0 -50,0 z"
       style="opacity:0.36538463;color:#000000;fill:url(#linearGradient3155);fill-opacity:1;fill-rule:nonzero;stroke:none;stroke-width:1.5;marker:none;visibility:visible;display:inline;overflow:visible;enable-background:accumulate" />
  </g>
</svg>
