<?xml version="1.0" encoding="UTF-8" standalone="no"?>
<!-- Created with Inkscape (http://www.inkscape.org/) -->

<svg
   xmlns:dc="http://purl.org/dc/elements/1.1/"
   xmlns:cc="http://creativecommons.org/ns#"
   xmlns:rdf="http://www.w3.org/1999/02/22-rdf-syntax-ns#"
   xmlns:svg="http://www.w3.org/2000/svg"
   xmlns="http://www.w3.org/2000/svg"
   xmlns:xlink="http://www.w3.org/1999/xlink"
   xmlns:sodipodi="http://sodipodi.sourceforge.net/DTD/sodipodi-0.dtd"
   xmlns:inkscape="http://www.inkscape.org/namespaces/inkscape"
   width="48"
   height="48"
   id="svg2"
   version="1.1"
   inkscape:version="0.48.3.1 r9886"
   sodipodi:docname="prefs_icon.svg">
  <defs
     id="defs4">
    <linearGradient
       inkscape:collect="always"
       id="linearGradient3673">
      <stop
         style="stop-color:#ffffff;stop-opacity:1;"
         offset="0"
         id="stop3675" />
      <stop
         style="stop-color:#ffffff;stop-opacity:0;"
         offset="1"
         id="stop3677" />
    </linearGradient>
    <linearGradient
       inkscape:collect="always"
       id="linearGradient3606">
      <stop
         style="stop-color:#00ff00;stop-opacity:1;"
         offset="0"
         id="stop3608" />
      <stop
         style="stop-color:#008000;stop-opacity:1"
         offset="1"
         id="stop3610" />
    </linearGradient>
    <inkscape:perspective
       sodipodi:type="inkscape:persp3d"
       inkscape:vp_x="0 : 526.18109 : 1"
       inkscape:vp_y="0 : 1000 : 0"
       inkscape:vp_z="744.09448 : 526.18109 : 1"
       inkscape:persp3d-origin="372.04724 : 350.78739 : 1"
       id="perspective10" />
    <filter
       inkscape:collect="always"
       id="filter3645"
       x="-0.28399798"
       width="1.567996"
       y="-0.2934019"
       height="1.5868038"
       color-interpolation-filters="sRGB">
      <feGaussianBlur
         inkscape:collect="always"
         stdDeviation="2.3074836"
         id="feGaussianBlur3647" />
    </filter>
    <filter
       inkscape:collect="always"
       id="filter3717"
       x="-0.12383569"
       width="1.2476714"
       y="-0.15171169"
       height="1.3034234"
       color-interpolation-filters="sRGB">
      <feGaussianBlur
         inkscape:collect="always"
         stdDeviation="1.6216603"
         id="feGaussianBlur3719" />
    </filter>
    <filter
       inkscape:collect="always"
       id="filter3747"
       x="-0.30285963"
       width="1.6057193"
       y="-0.31288812"
       height="1.6257762"
       color-interpolation-filters="sRGB">
      <feGaussianBlur
         inkscape:collect="always"
         stdDeviation="2.4607346"
         id="feGaussianBlur3749" />
    </filter>
    <radialGradient
       inkscape:collect="always"
       xlink:href="#linearGradient3606"
       id="radialGradient3800"
       gradientUnits="userSpaceOnUse"
       gradientTransform="matrix(16.530134,0.48364805,-0.27317499,9.3366017,591.364,-2923.6675)"
       cx="-32.445354"
       cy="356.98007"
       fx="-32.374569"
       fy="356.00134"
       r="6.0609155" />
    <radialGradient
       inkscape:collect="always"
       xlink:href="#linearGradient3606"
       id="radialGradient3802"
       gradientUnits="userSpaceOnUse"
       gradientTransform="matrix(1.1931263,0.00572439,-0.00378742,0.78940658,-39.970039,69.570752)"
       cx="213.55574"
       cy="336.16071"
       fx="213.55574"
       fy="336.16071"
       r="94.296875" />
    <linearGradient
       inkscape:collect="always"
       xlink:href="#linearGradient3606"
       id="linearGradient3804"
       gradientUnits="userSpaceOnUse"
       x1="74.181686"
       y1="265.25089"
       x2="80.638641"
       y2="272.32642" />
    <radialGradient
       inkscape:collect="always"
       xlink:href="#linearGradient3606"
       id="radialGradient3806"
       gradientUnits="userSpaceOnUse"
       gradientTransform="matrix(2.180431,0.09380948,-0.05344955,1.2423375,-85.587324,-94.111332)"
       cx="88.537552"
       cy="354.07498"
       fx="88.537552"
       fy="356.18301"
       r="17.391304" />
    <linearGradient
       inkscape:collect="always"
       xlink:href="#linearGradient3673"
       id="linearGradient3808"
       gradientUnits="userSpaceOnUse"
       x1="145.33305"
       y1="353.39304"
       x2="145.61858"
       y2="368.81149" />
    <radialGradient
       inkscape:collect="always"
       xlink:href="#linearGradient3606"
       id="radialGradient3810"
       gradientUnits="userSpaceOnUse"
       gradientTransform="matrix(2.180431,0.09380948,-0.05344955,1.2423375,-85.587324,-94.111332)"
       cx="88.537552"
       cy="354.07498"
       fx="88.537552"
       fy="356.18301"
       r="17.391304" />
    <linearGradient
       inkscape:collect="always"
       xlink:href="#linearGradient3673"
       id="linearGradient3812"
       gradientUnits="userSpaceOnUse"
       x1="145.33305"
       y1="353.39304"
       x2="145.61858"
       y2="368.81149" />
    <linearGradient
       inkscape:collect="always"
       xlink:href="#linearGradient3673"
       id="linearGradient3814"
       gradientUnits="userSpaceOnUse"
       x1="139.48976"
       y1="349.79507"
       x2="144.27013"
       y2="366.81262" />
    <linearGradient
       inkscape:collect="always"
       xlink:href="#linearGradient3673"
       id="linearGradient3816"
       gradientUnits="userSpaceOnUse"
       x1="136.79285"
       y1="353.39304"
       x2="142.4722"
       y2="364.81375" />
    <linearGradient
       inkscape:collect="always"
       xlink:href="#linearGradient3673"
       id="linearGradient3818"
       gradientUnits="userSpaceOnUse"
       x1="143.54761"
       y1="353.23697"
       x2="144.89212"
       y2="367.44766" />
    <linearGradient
       inkscape:collect="always"
       xlink:href="#linearGradient3606"
       id="linearGradient3820"
       gradientUnits="userSpaceOnUse"
       x1="74.181686"
       y1="265.25089"
       x2="80.638641"
       y2="272.32642" />
    <radialGradient
       inkscape:collect="always"
       xlink:href="#linearGradient3606"
       id="radialGradient3055"
       gradientUnits="userSpaceOnUse"
       gradientTransform="matrix(4.5025311,0.02160228,-0.01429268,2.9790037,-618.5177,-355.60735)"
       cx="213.55574"
       cy="336.16071"
       fx="213.55574"
       fy="336.16071"
       r="94.296875" />
    <radialGradient
       inkscape:collect="always"
       xlink:href="#linearGradient3606"
       id="radialGradient3058"
       gradientUnits="userSpaceOnUse"
       gradientTransform="matrix(62.380189,1.825155,-1.0308874,35.233772,2373.5084,-11795.161)"
       cx="-32.445354"
       cy="356.98007"
       fx="-32.374569"
       fy="356.00134"
       r="6.0609155" />
    <radialGradient
       inkscape:collect="always"
       xlink:href="#linearGradient3606"
       id="radialGradient3081"
       gradientUnits="userSpaceOnUse"
       gradientTransform="matrix(62.380189,1.825155,-1.0308874,35.233772,2373.5084,-11795.161)"
       cx="-32.445354"
       cy="356.98007"
       fx="-32.374569"
       fy="356.00134"
       r="6.0609155" />
    <radialGradient
       inkscape:collect="always"
       xlink:href="#linearGradient3606"
       id="radialGradient3083"
       gradientUnits="userSpaceOnUse"
       gradientTransform="matrix(4.5025311,0.02160228,-0.01429268,2.9790037,-618.5177,-355.60735)"
       cx="213.55574"
       cy="336.16071"
       fx="213.55574"
       fy="336.16071"
       r="94.296875" />
    <linearGradient
       inkscape:collect="always"
       xlink:href="#linearGradient3606"
       id="linearGradient3085"
       gradientUnits="userSpaceOnUse"
       x1="74.181686"
       y1="265.25089"
       x2="80.638641"
       y2="272.32642" />
    <linearGradient
       inkscape:collect="always"
       xlink:href="#linearGradient3673"
       id="linearGradient3087"
       gradientUnits="userSpaceOnUse"
       x1="139.48976"
       y1="349.79507"
       x2="144.27013"
       y2="366.81262" />
    <linearGradient
       inkscape:collect="always"
       xlink:href="#linearGradient3673"
       id="linearGradient3089"
       gradientUnits="userSpaceOnUse"
       x1="136.79285"
       y1="353.39304"
       x2="142.4722"
       y2="364.81375" />
    <linearGradient
       inkscape:collect="always"
       xlink:href="#linearGradient3673"
       id="linearGradient3091"
       gradientUnits="userSpaceOnUse"
       x1="143.54761"
       y1="353.23697"
       x2="144.89212"
       y2="367.44766" />
    <linearGradient
       inkscape:collect="always"
       xlink:href="#linearGradient3606"
       id="linearGradient3093"
       gradientUnits="userSpaceOnUse"
       x1="74.181686"
       y1="265.25089"
       x2="80.638641"
       y2="272.32642" />
  </defs>
  <sodipodi:namedview
     id="base"
     pagecolor="#ffffff"
     bordercolor="#666666"
     borderopacity="1.0"
     inkscape:pageopacity="0.0"
     inkscape:pageshadow="2"
     inkscape:zoom="7.2294765"
     inkscape:cx="27.990304"
     inkscape:cy="31.91301"
     inkscape:document-units="px"
     inkscape:current-layer="layer1"
     showgrid="false"
     inkscape:window-width="1855"
     inkscape:window-height="1056"
     inkscape:window-x="65"
     inkscape:window-y="24"
     inkscape:window-maximized="1" />
  <metadata
     id="metadata7">
    <rdf:RDF>
      <cc:Work
         rdf:about="">
        <dc:format>image/svg+xml</dc:format>
        <dc:type
           rdf:resource="http://purl.org/dc/dcmitype/StillImage" />
        <dc:title />
      </cc:Work>
    </rdf:RDF>
  </metadata>
  <g
     inkscape:label="Camada 1"
     inkscape:groupmode="layer"
     id="layer1"
     transform="translate(0,-1004.3622)">
    <g
       id="g3061"
       transform="matrix(0.06239167,0,0,0.06239167,-8.5080456,990.182)">
      <rect
         transform="matrix(0.89442719,0.44721361,-0.44721361,0.89442719,0,0)"
         rx="34.022854"
         ry="34.112724"
         y="-0.66557884"
         x="862.71967"
         height="237.12886"
         width="68.648445"
         id="rect3628"
         style="fill:#008000;fill-opacity:1;stroke:none" />
      <rect
         style="fill:url(#radialGradient3081);fill-opacity:1;stroke:none"
         id="rect2828"
         width="68.648445"
         height="237.12886"
         x="-39.439514"
         y="450.41403"
         ry="34.112724"
         rx="34.022854"
         transform="matrix(-0.89442719,0.44721361,0.44721361,0.89442719,0,0)" />
      <path
         id="path2816"
         d="m 521.57315,482.73501 c -189.77944,0 -345.01206,148.34322 -355.90948,335.38985 l 711.70104,0 C 866.46729,631.07823 711.3526,482.73501 521.57315,482.73501 z"
         style="fill:url(#radialGradient3083);fill-opacity:1;stroke:none"
         inkscape:connector-curvature="0" />
      <g
         transform="matrix(3.7737255,0,0,3.7737255,-467.68174,-618.14827)"
         id="g3753">
        <path
           id="path3751"
           d="m 240.09778,345.18331 c 1.71799,1.73404 2.78125,4.11616 2.78125,6.75 0,5.29997 -4.29378,9.59375 -9.59375,9.59375 -3.1314,0 -5.90464,-1.52327 -7.65625,-3.84375 1.49268,3.72929 5.11259,6.375 9.375,6.375 5.59103,0 10.125,-4.53397 10.125,-10.125 0,-3.73585 -2.02037,-6.99576 -5.03125,-8.75 z"
           style="opacity:0.81907893;fill:#ffffff;fill-opacity:1;stroke:none;filter:url(#filter3747)"
           transform="matrix(-1,0,0,-1,451.94619,695.13271)"
           inkscape:connector-curvature="0" />
        <path
           style="opacity:0.81907893;fill:#000000;stroke:none;filter:url(#filter3747)"
           d="m 227.64875,337.71389 c 1.71799,1.73404 2.78125,4.11616 2.78125,6.75 0,5.29997 -4.29378,9.59375 -9.59375,9.59375 -3.1314,0 -5.90464,-1.52327 -7.65625,-3.84375 1.49268,3.72929 5.11259,6.375 9.375,6.375 5.59103,0 10.125,-4.53397 10.125,-10.125 0,-3.73585 -2.02037,-6.99576 -5.03125,-8.75 z"
           id="path3632"
           inkscape:connector-curvature="0" />
        <path
           transform="matrix(1.1729672,0,0,1.1729672,126.69542,31.77965)"
           d="m 88.893423,265.95844 c 0,5.29997 -4.296476,9.59644 -9.596449,9.59644 -5.299972,0 -9.596449,-4.29647 -9.596449,-9.59644 0,-5.29998 4.296477,-9.59645 9.596449,-9.59645 5.299973,0 9.596449,4.29647 9.596449,9.59645 z"
           sodipodi:ry="9.5964489"
           sodipodi:rx="9.5964489"
           sodipodi:cy="265.95844"
           sodipodi:cx="79.296974"
           id="path3727"
           style="fill:url(#linearGradient3085);fill-opacity:1;stroke:none"
           sodipodi:type="arc" />
        <path
           sodipodi:type="arc"
           style="fill:#ffffff;stroke:none"
           id="path2830"
           sodipodi:cx="79.296974"
           sodipodi:cy="265.95844"
           sodipodi:rx="9.5964489"
           sodipodi:ry="9.5964489"
           d="m 88.893423,265.95844 c 0,5.29997 -4.296476,9.59644 -9.596449,9.59644 -5.299972,0 -9.596449,-4.29647 -9.596449,-9.59644 0,-5.29998 4.296477,-9.59645 9.596449,-9.59645 5.299973,0 9.596449,4.29647 9.596449,9.59645 z"
           transform="translate(140.4112,77.781746)" />
      </g>
      <path
         transform="matrix(3.2846856,0,0,3.6931223,-253.42949,-923.76315)"
         d="m 153.89884,365.95621 c 0,4.09999 -4.0907,7.42369 -9.13685,7.42369 -5.04614,0 -9.13685,-3.3237 -9.13685,-7.42369 0,-4.09999 4.09071,-7.42369 9.13685,-7.42369 5.04615,0 9.13685,3.3237 9.13685,7.42369 z"
         sodipodi:ry="7.4236917"
         sodipodi:rx="9.1368513"
         sodipodi:cy="365.95621"
         sodipodi:cx="144.76199"
         id="path3701"
         style="fill:url(#linearGradient3087);fill-opacity:1;stroke:none"
         sodipodi:type="arc" />
      <path
         sodipodi:type="arc"
         style="fill:url(#linearGradient3089);fill-opacity:1;stroke:none"
         id="path3705"
         sodipodi:cx="144.76199"
         sodipodi:cy="365.95621"
         sodipodi:rx="9.1368513"
         sodipodi:ry="7.4236917"
         d="m 153.89884,365.95621 c 0,4.09999 -4.0907,7.42369 -9.13685,7.42369 -5.04614,0 -9.13685,-3.3237 -9.13685,-7.42369 0,-4.09999 4.09071,-7.42369 9.13685,-7.42369 5.04615,0 9.13685,3.3237 9.13685,7.42369 z"
         transform="matrix(3.2846856,0,0,3.6931223,312.03746,-923.76315)" />
      <path
         transform="matrix(3.7737255,0,0,3.7737255,-467.68174,-618.14827)"
         sodipodi:nodetypes="ccczc"
         id="path3711"
         d="m 176.76685,353.42013 c 0,0 -6.29793,11.04351 -5.53491,23.36961 7.73291,3.30626 31.36449,2.04998 31.36449,2.04998 0,0 -21.23288,-0.18148 -26.23958,-5.73991 -5.00669,-5.55844 0.41,-19.67968 0.41,-19.67968 z"
         style="opacity:0.53618421;fill:#000000;fill-opacity:1;stroke:none;filter:url(#filter3717)"
         inkscape:connector-curvature="0" />
      <path
         transform="matrix(-3.7737255,0,0,3.7737255,1509.7453,-618.14827)"
         style="opacity:0.5625;fill:#000000;fill-opacity:1;stroke:none;filter:url(#filter3717)"
         d="m 176.76685,353.42013 c 0,0 -6.29793,11.04351 -5.53491,23.36961 7.73291,3.30626 31.36449,2.04998 31.36449,2.04998 0,0 -21.23288,-0.18148 -26.23958,-5.73991 -5.00669,-5.55844 0.41,-19.67968 0.41,-19.67968 z"
         id="path3721"
         sodipodi:nodetypes="ccczc"
         inkscape:connector-curvature="0" />
      <path
         sodipodi:type="arc"
         style="fill:url(#linearGradient3091);fill-opacity:1;stroke:none"
         id="path3723"
         sodipodi:cx="144.76199"
         sodipodi:cy="365.95621"
         sodipodi:rx="9.1368513"
         sodipodi:ry="7.4236917"
         d="m 153.89884,365.95621 c 0,4.09999 -4.0907,7.42369 -9.13685,7.42369 -5.04614,0 -9.13685,-3.3237 -9.13685,-7.42369 0,-4.09999 4.09071,-7.42369 9.13685,-7.42369 5.04615,0 9.13685,3.3237 9.13685,7.42369 z"
         transform="matrix(19.928357,0,0,9.9940225,-2366.0411,-3095.2629)" />
      <g
         transform="matrix(3.7737255,0,0,3.7737255,-165.7837,-618.14827)"
         id="g3761">
        <path
           transform="matrix(-1,0,0,-1,451.94619,695.13271)"
           style="opacity:0.81907893;fill:#ffffff;fill-opacity:1;stroke:none;filter:url(#filter3747)"
           d="m 240.09778,345.18331 c 1.71799,1.73404 2.78125,4.11616 2.78125,6.75 0,5.29997 -4.29378,9.59375 -9.59375,9.59375 -3.1314,0 -5.90464,-1.52327 -7.65625,-3.84375 1.49268,3.72929 5.11259,6.375 9.375,6.375 5.59103,0 10.125,-4.53397 10.125,-10.125 0,-3.73585 -2.02037,-6.99576 -5.03125,-8.75 z"
           id="path3763"
           inkscape:connector-curvature="0" />
        <path
           id="path3765"
           d="m 227.64875,337.71389 c 1.71799,1.73404 2.78125,4.11616 2.78125,6.75 0,5.29997 -4.29378,9.59375 -9.59375,9.59375 -3.1314,0 -5.90464,-1.52327 -7.65625,-3.84375 1.49268,3.72929 5.11259,6.375 9.375,6.375 5.59103,0 10.125,-4.53397 10.125,-10.125 0,-3.73585 -2.02037,-6.99576 -5.03125,-8.75 z"
           style="opacity:0.81907893;fill:#000000;stroke:none;filter:url(#filter3747)"
           inkscape:connector-curvature="0" />
        <path
           sodipodi:type="arc"
           style="fill:url(#linearGradient3093);fill-opacity:1;stroke:none"
           id="path3767"
           sodipodi:cx="79.296974"
           sodipodi:cy="265.95844"
           sodipodi:rx="9.5964489"
           sodipodi:ry="9.5964489"
           d="m 88.893423,265.95844 c 0,5.29997 -4.296476,9.59644 -9.596449,9.59644 -5.299972,0 -9.596449,-4.29647 -9.596449,-9.59644 0,-5.29998 4.296477,-9.59645 9.596449,-9.59645 5.299973,0 9.596449,4.29647 9.596449,9.59645 z"
           transform="matrix(1.1729672,0,0,1.1729672,126.69542,31.77965)" />
        <path
           transform="translate(140.4112,77.781746)"
           d="m 88.893423,265.95844 c 0,5.29997 -4.296476,9.59644 -9.596449,9.59644 -5.299972,0 -9.596449,-4.29647 -9.596449,-9.59644 0,-5.29998 4.296477,-9.59645 9.596449,-9.59645 5.299973,0 9.596449,4.29647 9.596449,9.59645 z"
           sodipodi:ry="9.5964489"
           sodipodi:rx="9.5964489"
           sodipodi:cy="265.95844"
           sodipodi:cx="79.296974"
           id="path3769"
           style="fill:#ffffff;stroke:none"
           sodipodi:type="arc" />
      </g>
    </g>
  </g>
</svg>
