<?xml version="1.0" encoding="UTF-8" standalone="no"?>
<!-- Created with Inkscape (http://www.inkscape.org/) -->

<svg
   xmlns:dc="http://purl.org/dc/elements/1.1/"
   xmlns:cc="http://creativecommons.org/ns#"
   xmlns:rdf="http://www.w3.org/1999/02/22-rdf-syntax-ns#"
   xmlns:svg="http://www.w3.org/2000/svg"
   xmlns="http://www.w3.org/2000/svg"
   xmlns:sodipodi="http://sodipodi.sourceforge.net/DTD/sodipodi-0.dtd"
   xmlns:inkscape="http://www.inkscape.org/namespaces/inkscape"
   width="310"
   height="134"
   id="svg3798"
   version="1.1"
   inkscape:version="0.48.4 r9939"
   sodipodi:docname="logo.svg">
  <defs
     id="defs3800" />
  <sodipodi:namedview
     id="base"
     pagecolor="#ffffff"
     bordercolor="#666666"
     borderopacity="1.0"
     inkscape:pageopacity="0.0"
     inkscape:pageshadow="2"
     inkscape:zoom="2.8"
     inkscape:cx="203.4242"
     inkscape:cy="105.62448"
     inkscape:document-units="px"
     inkscape:current-layer="layer1"
     showgrid="false"
     inkscape:window-width="1920"
     inkscape:window-height="1052"
     inkscape:window-x="0"
     inkscape:window-y="-3"
     inkscape:window-maximized="1" />
  <metadata
     id="metadata3803">
    <rdf:RDF>
      <cc:Work
         rdf:about="">
        <dc:format>image/svg+xml</dc:format>
        <dc:type
           rdf:resource="http://purl.org/dc/dcmitype/StillImage" />
        <dc:title></dc:title>
      </cc:Work>
    </rdf:RDF>
  </metadata>
  <g
     inkscape:label="Layer 1"
     inkscape:groupmode="layer"
     id="layer1"
     transform="translate(0,-918.3622)">
    <g
       id="g3804"
       transform="translate(0,66)">
      <g
         transform="matrix(-0.85487528,0,0,0.85487528,46.517007,0.2229626)"
         id="g4580">
        <path
           inkscape:connector-curvature="0"
           style="fill:#0099cc;fill-opacity:1;fill-rule:nonzero;stroke:none"
           d="M 36.6875,18.59375 33.90625,19.75 c 0.563521,1.306637 0.875,2.738579 0.875,4.25 0,2.870402 -1.134505,5.47268 -2.96875,7.40625 l 2.21875,2.03125 C 36.359058,30.9647 37.8125,27.660605 37.8125,24 c 0,-1.920508 -0.415375,-3.743788 -1.125,-5.40625 z"
           transform="translate(0,1004.3622)"
           id="path4314" />
        <path
           inkscape:connector-curvature="0"
           style="fill:#0099cc;fill-opacity:1;fill-rule:nonzero;stroke:none"
           d="M 24,4.3125 C 13.122311,4.3125 4.3125,13.122311 4.3125,24 4.3125,34.877689 13.122311,43.6875 24,43.6875 34.877689,43.6875 43.6875,34.877689 43.6875,24 43.6875,13.122311 34.877689,4.3125 24,4.3125 z M 24,7.25 c 9.250421,0 16.75,7.499579 16.75,16.75 0,9.250421 -7.499579,16.75 -16.75,16.75 C 14.749579,40.75 7.25,33.250421 7.25,24 7.25,14.749579 14.749579,7.25 24,7.25 z"
           transform="translate(0,1004.3622)"
           id="path4316" />
        <path
           inkscape:connector-curvature="0"
           style="fill:#0099cc;fill-opacity:1;stroke:none"
           d="m 24,10.1875 c -3.843304,0 -7.307495,1.588003 -9.8125,4.125 l 2.15625,2.09375 c 1.954401,-1.970236 4.667211,-3.1875 7.65625,-3.1875 1.34375,0 2.625259,0.267963 3.8125,0.71875 L 28.96875,11.125 C 27.424633,10.527717 25.753805,10.1875 24,10.1875 z"
           id="path4346"
           transform="translate(0,1004.3622)" />
        <path
           inkscape:connector-curvature="0"
           style="fill:#0099cc;fill-opacity:1;stroke:none"
           d="m 16.59375,31.8125 c -0.933702,1.058479 -1.02903,1.144175 -2,2.25 1.97037,1.84308 4.464541,3.123122 7.25,3.5625 0.149789,-1.118293 0.255737,-1.858049 0.40625,-3 -2.169029,-0.358469 -4.12758,-1.362356 -5.65625,-2.8125 z"
           transform="translate(0,1004.3622)"
           id="path4359" />
        <path
           inkscape:connector-curvature="0"
           style="font-size:medium;font-style:normal;font-variant:normal;font-weight:normal;font-stretch:normal;text-indent:0;text-align:start;text-decoration:none;line-height:normal;letter-spacing:normal;word-spacing:normal;text-transform:none;direction:ltr;block-progression:tb;writing-mode:lr-tb;text-anchor:start;baseline-shift:baseline;color:#000000;fill:none;stroke:#0099cc;stroke-width:2.20000005;stroke-linecap:round;stroke-linejoin:round;stroke-miterlimit:4.19999981;stroke-opacity:1;stroke-dasharray:none;marker:none;visibility:visible;display:inline;overflow:visible;enable-background:accumulate;font-family:Sans;-inkscape-font-specification:Sans"
           d="m 32.46875,14.65625 -8.65625,8.65625 -11.75,-0.1875 -0.03125,1 11.40625,0.1875 3.40625,10.375 0.9375,-0.3125 -3.375,-10.25 8.75,-8.75 -0.6875,-0.71875 z"
           transform="translate(0,1004.3622)"
           id="path4375" />
      </g>
      <flowRoot
         transform="translate(0,852.3622)"
         style="font-size:10px;font-style:normal;font-weight:normal;line-height:125%;letter-spacing:0px;word-spacing:0px;fill:#000000;fill-opacity:1;stroke:none;font-family:Sans"
         id="flowRoot2996"
         xml:space="preserve"><flowRegion
           id="flowRegion2998"><rect
             style="font-size:10px"
             y="0.99994886"
             x="42.931484"
             height="51.770317"
             width="196.97975"
             id="rect3000" /></flowRegion><flowPara
           id="flowPara3002"></flowPara></flowRoot>      <flowRoot
         transform="translate(-10.642857,848.43363)"
         style="font-size:40px;font-style:normal;font-weight:normal;line-height:125%;letter-spacing:0px;word-spacing:0px;fill:#000000;fill-opacity:1;stroke:none;font-family:Sans"
         id="flowRoot3006"
         xml:space="preserve"><flowRegion
           id="flowRegion3008"><rect
             y="7.5659404"
             x="59.346462"
             height="50.403027"
             width="267.32202"
             id="rect3010" /></flowRegion><flowPara
           style="font-size:35px;font-style:normal;font-variant:normal;font-weight:normal;font-stretch:normal;fill:#0099cc;fill-opacity:1;font-family:Roboto;-inkscape-font-specification:Roboto"
           id="flowPara3012">HoloEverywhere</flowPara></flowRoot>      <flowRoot
         transform="matrix(0.99990887,0.01350033,-0.01350033,0.99990887,-2.645796,854.49876)"
         style="font-size:40px;font-style:normal;font-weight:normal;line-height:125%;letter-spacing:0px;word-spacing:0px;fill:#000000;fill-opacity:1;stroke:none;font-family:Sans"
         id="flowRoot3786"
         xml:space="preserve"><flowRegion
           id="flowRegion3788"><rect
             y="48.214287"
             x="7.8571429"
             height="59.642857"
             width="291.78571"
             id="rect3790" /></flowRegion><flowPara
           style="font-size:32px;font-style:normal;font-variant:normal;font-weight:normal;font-stretch:normal;fill:#0099cc;fill-opacity:1;font-family:Roboto;-inkscape-font-specification:Roboto"
           id="flowPara3792">Just Holo</flowPara></flowRoot>      <flowRoot
         transform="matrix(0.96592583,-0.25881905,0.25881905,0.96592583,-45.910865,875.18528)"
         style="font-size:40px;font-style:normal;font-weight:normal;line-height:125%;letter-spacing:0px;word-spacing:0px;fill:#000000;fill-opacity:1;stroke:none;font-family:Sans"
         id="flowRoot3794"
         xml:space="preserve"><flowRegion
           id="flowRegion3796"><rect
             y="108.21429"
             x="94.64286"
             height="67.178757"
             width="351.76721"
             id="rect3798" /></flowRegion><flowPara
           style="font-size:32px;font-style:normal;font-variant:normal;font-weight:normal;font-stretch:normal;fill:#0099cc;fill-opacity:1;font-family:Roboto;-inkscape-font-specification:Roboto"
           id="flowPara3800">Just Everywhere</flowPara></flowRoot>      <path
         inkscape:connector-curvature="0"
         id="path3802"
         d="m 0.50507627,905.84947 310.11683373,0"
         style="fill:none;stroke:#0099cc;stroke-width:2;stroke-linecap:butt;stroke-linejoin:miter;stroke-miterlimit:4;stroke-opacity:1;stroke-dasharray:none" />
    </g>
  </g>
</svg>
